<svg id="Layer_1" data-name="Layer 1" xmlns="http://www.w3.org/2000/svg" viewBox="0 0 271.92 265.12"><defs><style>.cls-1{fill:#e77500;}.cls-2,.cls-6,.cls-7,.cls-8{fill:none;}.cls-2,.cls-3,.cls-5,.cls-6,.cls-7{stroke:#000;stroke-miterlimit:10;}.cls-2,.cls-3{stroke-width:9.1px;}.cls-4,.cls-5{fill:#fff;}.cls-5{stroke-width:3.64px;}.cls-6{stroke-width:1.82px;}.cls-7{stroke-width:0.91px;}</style></defs><rect class="cls-1" x="84.73" y="105.04" width="138.09" height="18" rx="9"/><path class="cls-2" d="M533.48,227.45v185c0,13.12-8.78,23.76-19.6,23.76H290.26c-10.82,0-19.6-10.64-19.6-23.76v-185c0-13.12,8.78-23.75,19.6-23.75H513.88C524.7,203.7,533.48,214.33,533.48,227.45Z" transform="translate(-266.11 -175.66)"/><path class="cls-2" d="M290.26,203.7a19.6,19.6,0,0,0-19.6,19.6v28.79" transform="translate(-266.11 -175.66)"/><path class="cls-3" d="M513.88,203.7" transform="translate(-266.11 -175.66)"/><path class="cls-3" d="M533.48,252.09" transform="translate(-266.11 -175.66)"/><path class="cls-3" d="M533.48,223.3v28.79H270.66V223.3a19.6,19.6,0,0,1,19.6-19.6H513.88A19.6,19.6,0,0,1,533.48,223.3Z" transform="translate(-266.11 -175.66)"/><path class="cls-4" d="M326.25,238.81V222.45h11.22v2.77h-7.92v3.87h6.83v2.77h-6.83v6.95Z" transform="translate(-266.11 -175.66)"/><path class="cls-4" d="M347,235l3.12.52a5.09,5.09,0,0,1-1.9,2.62,5.58,5.58,0,0,1-3.25.9,5.33,5.33,0,0,1-4.58-2,6.8,6.8,0,0,1-1.17-4.09,6.52,6.52,0,0,1,1.54-4.61,5.1,5.1,0,0,1,3.9-1.67,5.24,5.24,0,0,1,4.17,1.75q1.53,1.74,1.46,5.35h-7.86a3.23,3.23,0,0,0,.76,2.17,2.41,2.41,0,0,0,1.81.77,1.9,1.9,0,0,0,1.24-.4A2.52,2.52,0,0,0,347,235Zm.18-3.17a3,3,0,0,0-.71-2.07,2.12,2.12,0,0,0-1.62-.71,2.17,2.17,0,0,0-1.7.75,2.84,2.84,0,0,0-.66,2Z" transform="translate(-266.11 -175.66)"/><path class="cls-4" d="M352.74,238.81V222.45h3.14v5.89a4.42,4.42,0,0,1,3.43-1.65,4.62,4.62,0,0,1,3.59,1.57,6.49,6.49,0,0,1,1.41,4.5,6.9,6.9,0,0,1-1.44,4.68,4.51,4.51,0,0,1-3.51,1.64,4.28,4.28,0,0,1-2-.51,4.87,4.87,0,0,1-1.71-1.5v1.74Zm3.12-6.18a5,5,0,0,0,.58,2.72,2.48,2.48,0,0,0,2.16,1.25,2.23,2.23,0,0,0,1.77-.89,4.33,4.33,0,0,0,.73-2.79,4.63,4.63,0,0,0-.74-2.93,2.32,2.32,0,0,0-1.88-.9,2.38,2.38,0,0,0-1.88.87A4.05,4.05,0,0,0,355.86,232.63Z" transform="translate(-266.11 -175.66)"/><path class="cls-4" d="M369.84,238.81H366.7V227h2.92v1.68a4.94,4.94,0,0,1,1.34-1.57,2.51,2.51,0,0,1,1.36-.38,4,4,0,0,1,2.06.59l-1,2.73a2.77,2.77,0,0,0-1.47-.51,1.75,1.75,0,0,0-1.12.36,2.58,2.58,0,0,0-.72,1.32,19,19,0,0,0-.26,4Z" transform="translate(-266.11 -175.66)"/><path class="cls-4" d="M383.53,238.81V237a4.57,4.57,0,0,1-1.7,1.5,4.84,4.84,0,0,1-2.23.55,4.35,4.35,0,0,1-2.14-.53,3.09,3.09,0,0,1-1.37-1.47,6.43,6.43,0,0,1-.43-2.62V227h3.14v5.44a15.74,15.74,0,0,0,.17,3.07,1.74,1.74,0,0,0,.63.89,1.94,1.94,0,0,0,1.16.33,2.48,2.48,0,0,0,1.44-.44,2.19,2.19,0,0,0,.87-1.1,12.34,12.34,0,0,0,.24-3.19v-5h3.13v11.85Z" transform="translate(-266.11 -175.66)"/><path class="cls-4" d="M392,230.57l-2.84-.51a4.41,4.41,0,0,1,1.65-2.54,6,6,0,0,1,3.48-.83,7.39,7.39,0,0,1,3.13.5,3.12,3.12,0,0,1,1.44,1.26,6.42,6.42,0,0,1,.42,2.8l0,3.66a12.81,12.81,0,0,0,.15,2.31,6.62,6.62,0,0,0,.56,1.59h-3.1q-.12-.31-.3-.93c-.06-.18-.09-.31-.12-.37a5.77,5.77,0,0,1-1.71,1.18,4.93,4.93,0,0,1-2,.39,4,4,0,0,1-2.88-1,3.31,3.31,0,0,1-1.06-2.51,3.38,3.38,0,0,1,.48-1.79,3.09,3.09,0,0,1,1.35-1.2,10.59,10.59,0,0,1,2.49-.74,16.53,16.53,0,0,0,3.05-.77v-.31a1.63,1.63,0,0,0-.45-1.29,2.7,2.7,0,0,0-1.68-.38,2.25,2.25,0,0,0-1.31.33A2.34,2.34,0,0,0,392,230.57Zm4.2,2.55c-.4.13-1,.29-1.91.48a5.63,5.63,0,0,0-1.71.54,1.33,1.33,0,0,0-.61,1.11,1.53,1.53,0,0,0,.49,1.14,1.73,1.73,0,0,0,1.25.48,2.72,2.72,0,0,0,1.62-.56,2,2,0,0,0,.75-1,6.36,6.36,0,0,0,.12-1.53Z" transform="translate(-266.11 -175.66)"/><path class="cls-4" d="M405.4,238.81h-3.13V227h2.91v1.68a5.07,5.07,0,0,1,1.34-1.57,2.51,2.51,0,0,1,1.36-.38,4,4,0,0,1,2.06.59L409,230a2.77,2.77,0,0,0-1.47-.51,1.77,1.77,0,0,0-1.12.36,2.58,2.58,0,0,0-.72,1.32,19,19,0,0,0-.26,4Z" transform="translate(-266.11 -175.66)"/><path class="cls-4" d="M409.81,227h3.34l2.83,8.41,2.77-8.41H422l-4.19,11.4-.75,2.07a8,8,0,0,1-.78,1.58,3.48,3.48,0,0,1-.86.89,4,4,0,0,1-1.2.53,6.44,6.44,0,0,1-1.6.19,8.72,8.72,0,0,1-1.77-.19l-.28-2.46a6.68,6.68,0,0,0,1.33.15,2,2,0,0,0,1.62-.64,4.57,4.57,0,0,0,.8-1.64Z" transform="translate(-266.11 -175.66)"/><path class="cls-4" d="M440.27,235.9v2.91h-11a7.63,7.63,0,0,1,1.07-3.13,20.49,20.49,0,0,1,3.53-3.92,22.6,22.6,0,0,0,2.6-2.68,3.48,3.48,0,0,0,.65-1.92,2.15,2.15,0,0,0-.57-1.61,2.37,2.37,0,0,0-3.11,0,3,3,0,0,0-.67,2l-3.13-.31a5.14,5.14,0,0,1,1.75-3.72,5.9,5.9,0,0,1,3.69-1.13,5.32,5.32,0,0,1,3.8,1.31,4.28,4.28,0,0,1,1.38,3.24,5.77,5.77,0,0,1-.39,2.11,8.66,8.66,0,0,1-1.26,2.09,20.53,20.53,0,0,1-2.05,2.09c-1,.9-1.62,1.51-1.88,1.81a4.83,4.83,0,0,0-.64.87Z" transform="translate(-266.11 -175.66)"/><path class="cls-4" d="M447.7,222.38a4.47,4.47,0,0,1,3.71,1.7c1.06,1.34,1.6,3.56,1.6,6.66s-.54,5.32-1.61,6.67a4.46,4.46,0,0,1-3.7,1.68,4.65,4.65,0,0,1-3.85-1.84q-1.47-1.83-1.47-6.54t1.61-6.65A4.47,4.47,0,0,1,447.7,222.38Zm0,2.6a1.59,1.59,0,0,0-1,.36,2.44,2.44,0,0,0-.69,1.3,17.69,17.69,0,0,0-.33,4.1,18.07,18.07,0,0,0,.29,4,2.81,2.81,0,0,0,.74,1.43,1.58,1.58,0,0,0,2,0,2.37,2.37,0,0,0,.69-1.3,17.37,17.37,0,0,0,.33-4.08,18.07,18.07,0,0,0-.29-4,3,3,0,0,0-.73-1.44A1.58,1.58,0,0,0,447.7,225Z" transform="translate(-266.11 -175.66)"/><path class="cls-4" d="M465.7,235.9v2.91h-11a7.51,7.51,0,0,1,1.08-3.13,20.36,20.36,0,0,1,3.52-3.92,22.6,22.6,0,0,0,2.6-2.68,3.48,3.48,0,0,0,.65-1.92,2.19,2.19,0,0,0-.56-1.61,2.11,2.11,0,0,0-1.56-.57,2.08,2.08,0,0,0-1.56.59,3,3,0,0,0-.67,2l-3.13-.31a5.14,5.14,0,0,1,1.75-3.72,5.92,5.92,0,0,1,3.69-1.13,5.32,5.32,0,0,1,3.8,1.31,4.29,4.29,0,0,1,1.39,3.24,5.78,5.78,0,0,1-.4,2.11,8.35,8.35,0,0,1-1.26,2.09,19.49,19.49,0,0,1-2.05,2.09c-1,.9-1.62,1.51-1.88,1.81a4.83,4.83,0,0,0-.64.87Z" transform="translate(-266.11 -175.66)"/><path class="cls-4" d="M475.84,238.81H472.7V227a10.83,10.83,0,0,1-4.05,2.38v-2.85a9,9,0,0,0,2.67-1.52,5.73,5.73,0,0,0,2-2.62h2.55Z" transform="translate(-266.11 -175.66)"/><rect class="cls-5" x="37.48" y="1.82" width="17.48" height="42.35" rx="8.74"/><path class="cls-5" d="M492.48,219.83h-1.35a8.09,8.09,0,0,1-8.06-8.07V185.55c0-4.44,1.83-8.07,8.06-8.07h1.35a8.09,8.09,0,0,1,8.06,8.07v26.21A8.09,8.09,0,0,1,492.48,219.83Z" transform="translate(-266.11 -175.66)"/><path d="M279.46,265.78l1.08-.1a2.34,2.34,0,0,0,.36,1.07,1.9,1.9,0,0,0,.87.67,3.32,3.32,0,0,0,1.33.26,3.21,3.21,0,0,0,1.16-.19A1.57,1.57,0,0,0,285,267a1.2,1.2,0,0,0,.25-.74,1.11,1.11,0,0,0-.24-.71,1.56,1.56,0,0,0-.78-.51,13.88,13.88,0,0,0-1.54-.43A7.9,7.9,0,0,1,281,264a2.38,2.38,0,0,1-.93-.8,2,2,0,0,1-.3-1.08,2.19,2.19,0,0,1,.37-1.23,2.26,2.26,0,0,1,1.09-.86,4.09,4.09,0,0,1,1.59-.3,4.48,4.48,0,0,1,1.7.31,2.46,2.46,0,0,1,1.13.92,2.63,2.63,0,0,1,.42,1.36l-1.09.08a1.79,1.79,0,0,0-.6-1.24,2.36,2.36,0,0,0-1.51-.42,2.46,2.46,0,0,0-1.52.38,1.14,1.14,0,0,0-.47.92,1,1,0,0,0,.33.77,4.57,4.57,0,0,0,1.73.62,11.38,11.38,0,0,1,1.92.55,2.65,2.65,0,0,1,1.11.88,2.17,2.17,0,0,1,.36,1.23,2.39,2.39,0,0,1-.39,1.31,2.62,2.62,0,0,1-1.14.95,3.89,3.89,0,0,1-1.67.34,5.15,5.15,0,0,1-2-.34,2.75,2.75,0,0,1-1.24-1A2.84,2.84,0,0,1,279.46,265.78Z" transform="translate(-266.11 -175.66)"/><path d="M291.92,268.56v-.92a2.31,2.31,0,0,1-2,1.06,2.53,2.53,0,0,1-1-.21,1.78,1.78,0,0,1-.72-.53,2.27,2.27,0,0,1-.33-.79,5.9,5.9,0,0,1-.06-1v-3.88h1.06v3.48a6.36,6.36,0,0,0,.07,1.12,1.1,1.1,0,0,0,.42.66,1.34,1.34,0,0,0,.81.24,1.72,1.72,0,0,0,.9-.25,1.38,1.38,0,0,0,.59-.67,3.26,3.26,0,0,0,.17-1.22v-3.36h1.07v6.27Z" transform="translate(-266.11 -175.66)"/><path d="M294.53,268.56v-6.27h1v.89a2.28,2.28,0,0,1,2-1,2.51,2.51,0,0,1,1,.21,1.62,1.62,0,0,1,.72.53,2.35,2.35,0,0,1,.33.79,6.29,6.29,0,0,1,.05,1v3.86h-1.06v-3.82a3,3,0,0,0-.12-1,1,1,0,0,0-.44-.51,1.38,1.38,0,0,0-.74-.19,1.72,1.72,0,0,0-1.18.43,2.12,2.12,0,0,0-.49,1.63v3.43Z" transform="translate(-266.11 -175.66)"/><path d="M314.81,268.56V259.9h1.72l2.05,6.13.42,1.28c.09-.31.25-.77.46-1.38l2.07-6h1.54v8.66H322v-7.25l-2.52,7.25h-1l-2.51-7.37v7.37Z" transform="translate(-266.11 -175.66)"/><path d="M324.39,265.42a3.22,3.22,0,0,1,1-2.58,3,3,0,0,1,2-.7,2.84,2.84,0,0,1,2.12.85,3.23,3.23,0,0,1,.82,2.34,4.19,4.19,0,0,1-.36,1.91,2.69,2.69,0,0,1-1.06,1.08,3.14,3.14,0,0,1-1.52.38,2.85,2.85,0,0,1-2.13-.84A3.41,3.41,0,0,1,324.39,265.42Zm1.09,0a2.68,2.68,0,0,0,.53,1.81,1.75,1.75,0,0,0,2.64,0,2.77,2.77,0,0,0,.53-1.84,2.62,2.62,0,0,0-.53-1.77,1.73,1.73,0,0,0-1.32-.6,1.68,1.68,0,0,0-1.32.6A2.67,2.67,0,0,0,325.48,265.42Z" transform="translate(-266.11 -175.66)"/><path d="M331.52,268.56v-6.27h1v.89a2.26,2.26,0,0,1,2-1,2.51,2.51,0,0,1,1,.21,1.53,1.53,0,0,1,.71.53,2.18,2.18,0,0,1,.34.79,7.71,7.71,0,0,1,.05,1v3.86h-1.06v-3.82a3,3,0,0,0-.12-1,1.08,1.08,0,0,0-.44-.51,1.38,1.38,0,0,0-.74-.19,1.72,1.72,0,0,0-1.18.43,2.12,2.12,0,0,0-.49,1.63v3.43Z" transform="translate(-266.11 -175.66)"/><path d="M355.71,268.56v-7.64h-2.85v-1h6.86v1h-2.86v7.64Z" transform="translate(-266.11 -175.66)"/><path d="M364.44,268.56v-.92a2.29,2.29,0,0,1-2,1.06,2.58,2.58,0,0,1-1-.21,1.68,1.68,0,0,1-.71-.53,2,2,0,0,1-.33-.79,5.65,5.65,0,0,1-.07-1v-3.88h1.07v3.48a6.69,6.69,0,0,0,.06,1.12,1.12,1.12,0,0,0,.43.66,1.29,1.29,0,0,0,.8.24,1.7,1.7,0,0,0,.9-.25,1.28,1.28,0,0,0,.59-.67,3.23,3.23,0,0,0,.18-1.22v-3.36h1.06v6.27Z" transform="translate(-266.11 -175.66)"/><path d="M371.35,266.54l1.1.14a2.63,2.63,0,0,1-1,1.49,2.94,2.94,0,0,1-1.8.53,2.86,2.86,0,0,1-2.18-.85,3.28,3.28,0,0,1-.81-2.37,3.48,3.48,0,0,1,.82-2.46,2.77,2.77,0,0,1,2.11-.88,2.69,2.69,0,0,1,2.06.86,3.42,3.42,0,0,1,.8,2.41c0,.06,0,.16,0,.29H367.8a2.44,2.44,0,0,0,.59,1.58,1.71,1.71,0,0,0,1.31.55,1.61,1.61,0,0,0,1-.31A2,2,0,0,0,371.35,266.54Zm-3.49-1.72h3.51a2.17,2.17,0,0,0-.41-1.19,1.61,1.61,0,0,0-1.31-.61,1.7,1.7,0,0,0-1.24.49A2,2,0,0,0,367.86,264.82Z" transform="translate(-266.11 -175.66)"/><path d="M390.57,268.56l-2.3-8.66h1.18l1.32,5.68q.21.89.36,1.77c.22-.93.35-1.46.39-1.6l1.65-5.85h1.38l1.24,4.38a23.9,23.9,0,0,1,.68,3.07c.11-.55.25-1.18.43-1.89l1.36-5.56h1.15L397,268.56h-1.1L394.1,262c-.15-.55-.24-.89-.27-1-.09.39-.17.73-.25,1l-1.84,6.6Z" transform="translate(-266.11 -175.66)"/><path d="M404.43,266.54l1.1.14a2.74,2.74,0,0,1-1,1.49,2.94,2.94,0,0,1-1.8.53,2.83,2.83,0,0,1-2.18-.85,3.28,3.28,0,0,1-.81-2.37,3.43,3.43,0,0,1,.82-2.46,2.75,2.75,0,0,1,2.11-.88,2.71,2.71,0,0,1,2.06.86,3.42,3.42,0,0,1,.79,2.41v.29h-4.68a2.43,2.43,0,0,0,.58,1.58,1.74,1.74,0,0,0,1.32.55,1.56,1.56,0,0,0,1-.31A2,2,0,0,0,404.43,266.54Zm-3.49-1.72h3.5a2.17,2.17,0,0,0-.4-1.19,1.63,1.63,0,0,0-1.32-.61,1.67,1.67,0,0,0-1.23.49A1.92,1.92,0,0,0,400.94,264.82Z" transform="translate(-266.11 -175.66)"/><path d="M410.92,268.56v-.79a1.94,1.94,0,0,1-1.75.93,2.51,2.51,0,0,1-1.38-.41,2.71,2.71,0,0,1-1-1.16,3.83,3.83,0,0,1-.35-1.7,4.4,4.4,0,0,1,.31-1.7,2.43,2.43,0,0,1,.94-1.18,2.55,2.55,0,0,1,1.4-.41,2.07,2.07,0,0,1,1,.24,2,2,0,0,1,.72.63V259.9h1.06v8.66Zm-3.36-3.13a2.72,2.72,0,0,0,.51,1.8,1.53,1.53,0,0,0,1.2.6,1.51,1.51,0,0,0,1.19-.57,2.66,2.66,0,0,0,.48-1.74,3,3,0,0,0-.49-1.89,1.54,1.54,0,0,0-1.23-.61,1.49,1.49,0,0,0-1.18.58A2.86,2.86,0,0,0,407.56,265.43Z" transform="translate(-266.11 -175.66)"/><path d="M431.06,268.56v-7.64h-2.85v-1h6.86v1h-2.86v7.64Z" transform="translate(-266.11 -175.66)"/><path d="M436.13,268.56V259.9h1.06V263a2.37,2.37,0,0,1,1.88-.87,2.57,2.57,0,0,1,1.21.28,1.65,1.65,0,0,1,.74.76,3.62,3.62,0,0,1,.22,1.4v4h-1.07v-4a1.66,1.66,0,0,0-.34-1.16,1.3,1.3,0,0,0-1-.36,1.69,1.69,0,0,0-.89.25,1.35,1.35,0,0,0-.59.66,3,3,0,0,0-.18,1.16v3.43Z" transform="translate(-266.11 -175.66)"/><path d="M447,268.56v-.92a2.29,2.29,0,0,1-2,1.06,2.58,2.58,0,0,1-1-.21,1.68,1.68,0,0,1-.71-.53,2,2,0,0,1-.33-.79,5.65,5.65,0,0,1-.07-1v-3.88h1.07v3.48a6.69,6.69,0,0,0,.06,1.12,1.12,1.12,0,0,0,.43.66,1.31,1.31,0,0,0,.8.24,1.7,1.7,0,0,0,.9-.25,1.28,1.28,0,0,0,.59-.67,3.23,3.23,0,0,0,.18-1.22v-3.36h1.06v6.27Z" transform="translate(-266.11 -175.66)"/><path d="M470,268.56V259.9h5.85v1h-4.7v2.68h4.06v1h-4.06v3.93Z" transform="translate(-266.11 -175.66)"/><path d="M477.15,268.56v-6.27h1v.95a2.56,2.56,0,0,1,.68-.88,1.2,1.2,0,0,1,.68-.22,2.09,2.09,0,0,1,1.1.35l-.37,1a1.56,1.56,0,0,0-.78-.23,1,1,0,0,0-.63.21,1.18,1.18,0,0,0-.39.59,4,4,0,0,0-.18,1.24v3.28Z" transform="translate(-266.11 -175.66)"/><path d="M481.2,261.12V259.9h1.06v1.22Zm0,7.44v-6.27h1.06v6.27Z" transform="translate(-266.11 -175.66)"/><path d="M503.79,265.78l1.08-.1a2.34,2.34,0,0,0,.36,1.07,2,2,0,0,0,.87.67,3.36,3.36,0,0,0,1.33.26,3.21,3.21,0,0,0,1.16-.19,1.66,1.66,0,0,0,.75-.54,1.26,1.26,0,0,0,.24-.74,1.16,1.16,0,0,0-.23-.71,1.66,1.66,0,0,0-.78-.51,15.05,15.05,0,0,0-1.55-.43,7.9,7.9,0,0,1-1.67-.54,2.28,2.28,0,0,1-.92-.8,1.92,1.92,0,0,1-.31-1.08,2.2,2.2,0,0,1,.38-1.23,2.23,2.23,0,0,1,1.08-.86,4.09,4.09,0,0,1,1.59-.3,4.48,4.48,0,0,1,1.7.31A2.41,2.41,0,0,1,510,261a2.55,2.55,0,0,1,.43,1.36l-1.1.08a1.79,1.79,0,0,0-.6-1.24,2.34,2.34,0,0,0-1.51-.42,2.48,2.48,0,0,0-1.52.38,1.17,1.17,0,0,0-.47.92,1,1,0,0,0,.33.77,4.65,4.65,0,0,0,1.73.62,11.38,11.38,0,0,1,1.92.55,2.69,2.69,0,0,1,1.12.88,2.17,2.17,0,0,1,.36,1.23,2.4,2.4,0,0,1-.4,1.31,2.57,2.57,0,0,1-1.14.95,3.88,3.88,0,0,1-1.66.34,5.17,5.17,0,0,1-2-.34,2.81,2.81,0,0,1-1.24-1A2.93,2.93,0,0,1,503.79,265.78Z" transform="translate(-266.11 -175.66)"/><path d="M516.23,267.79a4.29,4.29,0,0,1-1.14.71,3.51,3.51,0,0,1-1.17.2,2.31,2.31,0,0,1-1.59-.5,1.68,1.68,0,0,1-.56-1.29,1.76,1.76,0,0,1,.21-.85,1.79,1.79,0,0,1,.55-.61,2.71,2.71,0,0,1,.77-.35c.2-.05.52-.1.94-.16a9.86,9.86,0,0,0,1.9-.36v-.28a1.16,1.16,0,0,0-.3-.91,1.77,1.77,0,0,0-1.21-.37,1.85,1.85,0,0,0-1.11.27,1.59,1.59,0,0,0-.52.93l-1-.14a2.56,2.56,0,0,1,.46-1.08,2,2,0,0,1,.94-.63,4.16,4.16,0,0,1,1.43-.23,3.88,3.88,0,0,1,1.3.19,1.76,1.76,0,0,1,.74.48,1.6,1.6,0,0,1,.33.72,5.59,5.59,0,0,1,.05,1v1.42a16.11,16.11,0,0,0,.07,1.88,2.6,2.6,0,0,0,.27.75h-1.11A2.23,2.23,0,0,1,516.23,267.79Zm-.09-2.38a7.78,7.78,0,0,1-1.74.4,4.22,4.22,0,0,0-.93.22.89.89,0,0,0-.42.34,1,1,0,0,0-.14.51.9.9,0,0,0,.32.71,1.42,1.42,0,0,0,.94.28,2.18,2.18,0,0,0,1.09-.27,1.67,1.67,0,0,0,.71-.73,2.71,2.71,0,0,0,.17-1.07Z" transform="translate(-266.11 -175.66)"/><path d="M521.19,267.61l.15.94a4.08,4.08,0,0,1-.8.09,1.84,1.84,0,0,1-.9-.18,1,1,0,0,1-.45-.48,4,4,0,0,1-.13-1.26v-3.61h-.78v-.82h.78v-1.56l1.06-.64v2.2h1.07v.82h-1.07v3.67a1.76,1.76,0,0,0,.06.59.38.38,0,0,0,.18.2.69.69,0,0,0,.36.08A3.06,3.06,0,0,0,521.19,267.61Z" transform="translate(-266.11 -175.66)"/><polyline class="cls-6" points="3.88 95.77 3.88 77.75 41.33 77.75 41.33 95.77"/><polyline class="cls-7" points="78.78 95.77 78.78 77.75 116.22 77.75 116.22 95.77"/><polyline class="cls-6" points="116.22 95.77 116.22 77.75 153.68 77.75 153.68 95.77"/><polyline class="cls-7" points="153.68 95.77 153.68 77.75 191.13 77.75 191.13 95.77"/><polyline class="cls-6" points="191.13 95.77 191.13 77.75 228.57 77.75 228.57 95.77"/><polyline class="cls-7" points="228.57 95.77 228.57 77.75 266.02 77.75 266.02 95.77"/><polyline class="cls-8" points="41.33 95.77 41.33 131.23 3.88 131.23 3.88 95.77"/><path d="M327.31,293.8h-1.07V287a5.18,5.18,0,0,1-1,.73,6.29,6.29,0,0,1-1.11.55v-1a6,6,0,0,0,1.55-1,4.11,4.11,0,0,0,.95-1.16h.69Z" transform="translate(-266.11 -175.66)"/><path class="cls-4" d="M366.34,292.77v1h-5.73a2,2,0,0,1,.13-.74,3.7,3.7,0,0,1,.7-1.15,10.75,10.75,0,0,1,1.39-1.32,11.82,11.82,0,0,0,1.91-1.83,2.19,2.19,0,0,0,.49-1.28,1.4,1.4,0,0,0-.45-1.06,1.62,1.62,0,0,0-1.18-.44,1.66,1.66,0,0,0-1.23.46,1.76,1.76,0,0,0-.46,1.28l-1.1-.11a2.72,2.72,0,0,1,.85-1.87,2.87,2.87,0,0,1,2-.64,2.73,2.73,0,0,1,2,.69,2.28,2.28,0,0,1,.73,1.71,2.69,2.69,0,0,1-.22,1,3.91,3.91,0,0,1-.7,1.05,17,17,0,0,1-1.64,1.53c-.64.53-1,.9-1.23,1.09a3.74,3.74,0,0,0-.45.57Z" transform="translate(-266.11 -175.66)"/><path class="cls-4" d="M398.21,291.51l1.06-.14a2.33,2.33,0,0,0,.62,1.3,1.53,1.53,0,0,0,1.07.4,1.7,1.7,0,0,0,1.27-.52,1.75,1.75,0,0,0,.52-1.29,1.64,1.64,0,0,0-.48-1.21,1.69,1.69,0,0,0-1.22-.47,3,3,0,0,0-.75.12l.12-.94.17,0a2.21,2.21,0,0,0,1.23-.36,1.22,1.22,0,0,0,.54-1.09,1.28,1.28,0,0,0-.4-1,1.37,1.37,0,0,0-1-.38,1.43,1.43,0,0,0-1,.38,1.88,1.88,0,0,0-.53,1.17l-1.07-.18a2.72,2.72,0,0,1,.89-1.66,2.56,2.56,0,0,1,1.72-.59,2.83,2.83,0,0,1,1.3.3,2.32,2.32,0,0,1,.92.83,2.18,2.18,0,0,1,.31,1.12,1.8,1.8,0,0,1-.3,1,2.13,2.13,0,0,1-.89.74,2,2,0,0,1,1.19.73,2.2,2.2,0,0,1,.43,1.4,2.54,2.54,0,0,1-.83,1.92A2.89,2.89,0,0,1,401,294a2.77,2.77,0,0,1-1.9-.68A2.62,2.62,0,0,1,398.21,291.51Z" transform="translate(-266.11 -175.66)"/><path class="cls-4" d="M439.06,293.8v-2.08H435.3v-1l3.95-5.61h.87v5.61h1.17v1h-1.17v2.08Zm0-3.05v-3.91l-2.71,3.91Z" transform="translate(-266.11 -175.66)"/><path class="cls-4" d="M473.1,291.53l1.12-.1a2,2,0,0,0,.57,1.23,1.59,1.59,0,0,0,1.09.41,1.68,1.68,0,0,0,1.3-.58,2.14,2.14,0,0,0,.53-1.53,2,2,0,0,0-.51-1.44,1.93,1.93,0,0,0-2.26-.29,1.64,1.64,0,0,0-.65.6l-1-.13.84-4.45h4.3v1H475l-.47,2.33a2.86,2.86,0,0,1,1.64-.55,2.61,2.61,0,0,1,1.91.79,2.74,2.74,0,0,1,.78,2,3.19,3.19,0,0,1-.68,2,2.76,2.76,0,0,1-2.28,1.05,2.81,2.81,0,0,1-1.93-.66A2.55,2.55,0,0,1,473.1,291.53Z" transform="translate(-266.11 -175.66)"/><path d="M516.07,287.26l-1.06.08a2.09,2.09,0,0,0-.4-.91,1.44,1.44,0,0,0-1.07-.45,1.45,1.45,0,0,0-.89.28,2.41,2.41,0,0,0-.79,1.07,5.68,5.68,0,0,0-.3,2,2.44,2.44,0,0,1,.94-.87,2.51,2.51,0,0,1,1.16-.28,2.41,2.41,0,0,1,1.81.78,2.8,2.8,0,0,1,.75,2,3.39,3.39,0,0,1-.35,1.52,2.54,2.54,0,0,1-2.36,1.44,2.72,2.72,0,0,1-2.17-1,5,5,0,0,1-.84-3.23,5.77,5.77,0,0,1,.93-3.65,2.66,2.66,0,0,1,2.18-1,2.33,2.33,0,0,1,2.46,2.16ZM511.72,291A2.38,2.38,0,0,0,512,292a1.71,1.71,0,0,0,.65.77,1.67,1.67,0,0,0,.88.26,1.5,1.5,0,0,0,1.16-.54,2.18,2.18,0,0,0,.48-1.48,2,2,0,0,0-.48-1.42,1.58,1.58,0,0,0-1.2-.51,1.64,1.64,0,0,0-1.22.51A1.86,1.86,0,0,0,511.72,291Z" transform="translate(-266.11 -175.66)"/><path d="M285.92,317.73v-1h5.61v.83a12,12,0,0,0-1.64,2.34,14.48,14.48,0,0,0-1.26,3,11.35,11.35,0,0,0-.41,2.38h-1.09a10.88,10.88,0,0,1,.4-2.47,13.31,13.31,0,0,1,1.11-2.79,11.64,11.64,0,0,1,1.52-2.27Z" transform="translate(-266.11 -175.66)"/><path d="M324.94,320.56a2,2,0,0,1-1-.69,1.76,1.76,0,0,1-.32-1.07,2.08,2.08,0,0,1,.68-1.59,2.5,2.5,0,0,1,1.8-.65,2.54,2.54,0,0,1,1.83.66,2.15,2.15,0,0,1,.69,1.61,1.72,1.72,0,0,1-.32,1.05,2,2,0,0,1-1,.68,2.4,2.4,0,0,1,1.22.84,2.31,2.31,0,0,1,.42,1.39,2.49,2.49,0,0,1-.79,1.86,2.83,2.83,0,0,1-2.07.76,2.86,2.86,0,0,1-2.07-.76,2.54,2.54,0,0,1-.78-1.89,2.26,2.26,0,0,1,.43-1.42A2.13,2.13,0,0,1,324.94,320.56Zm-.56,2.2a1.85,1.85,0,0,0,.22.88,1.46,1.46,0,0,0,.64.66,1.81,1.81,0,0,0,.91.23,1.7,1.7,0,0,0,1.26-.49,1.67,1.67,0,0,0,.5-1.24,1.7,1.7,0,0,0-.51-1.27,1.74,1.74,0,0,0-1.28-.51,1.7,1.7,0,0,0-1.25.5A1.73,1.73,0,0,0,324.38,322.76Zm.34-4a1.38,1.38,0,0,0,.4,1,1.4,1.4,0,0,0,1,.39,1.39,1.39,0,0,0,1-.39,1.28,1.28,0,0,0,.39-.95,1.31,1.31,0,0,0-.41-1,1.35,1.35,0,0,0-1-.4,1.37,1.37,0,0,0-1,.39A1.25,1.25,0,0,0,324.72,318.76Z" transform="translate(-266.11 -175.66)"/><path d="M360.91,323.26l1-.1a1.79,1.79,0,0,0,.5,1,1.33,1.33,0,0,0,.94.32,1.64,1.64,0,0,0,.86-.22,1.91,1.91,0,0,0,.6-.6,3.59,3.59,0,0,0,.4-1,5.71,5.71,0,0,0,.16-1.3s0-.12,0-.22a2.42,2.42,0,0,1-2.07,1.14,2.44,2.44,0,0,1-1.82-.78,2.86,2.86,0,0,1-.74-2.05,2.9,2.9,0,0,1,.78-2.12,2.56,2.56,0,0,1,1.94-.81,2.79,2.79,0,0,1,2.61,1.76,6.41,6.41,0,0,1,.36,2.43,7.94,7.94,0,0,1-.36,2.65,3,3,0,0,1-1.07,1.49,2.72,2.72,0,0,1-1.67.52,2.29,2.29,0,0,1-2.43-2.15Zm4.35-3.82a2.12,2.12,0,0,0-.48-1.46,1.54,1.54,0,0,0-1.18-.54,1.63,1.63,0,0,0-1.23.58,2.16,2.16,0,0,0-.53,1.5,1.88,1.88,0,0,0,.5,1.35,1.64,1.64,0,0,0,1.23.51,1.59,1.59,0,0,0,1.22-.51A2.07,2.07,0,0,0,365.26,319.44Z" transform="translate(-266.11 -175.66)"/><path d="M398.84,325.26h-1.06v-6.78a5.51,5.51,0,0,1-1,.74,8.74,8.74,0,0,1-1.12.55v-1a6.37,6.37,0,0,0,1.56-1,4,4,0,0,0,1-1.16h.68Z" transform="translate(-266.11 -175.66)"/><path d="M401.56,321a7.87,7.87,0,0,1,.32-2.47,3,3,0,0,1,.94-1.45,2.39,2.39,0,0,1,1.57-.51,2.64,2.64,0,0,1,1.22.28,2.41,2.41,0,0,1,.87.81,4.47,4.47,0,0,1,.54,1.29,8.64,8.64,0,0,1,.19,2.05,7.92,7.92,0,0,1-.31,2.46,3.08,3.08,0,0,1-.94,1.45,2.63,2.63,0,0,1-3.54-.39A5.7,5.7,0,0,1,401.56,321Zm1.1,0a5.36,5.36,0,0,0,.5,2.84,1.43,1.43,0,0,0,2.46,0,8.32,8.32,0,0,0,0-5.68,1.48,1.48,0,0,0-1.24-.71,1.37,1.37,0,0,0-1.17.62A5.49,5.49,0,0,0,402.66,321Z" transform="translate(-266.11 -175.66)"/><path d="M436.74,325.26h-1.06v-6.78a5.88,5.88,0,0,1-1,.74,8.74,8.74,0,0,1-1.12.55v-1a6.57,6.57,0,0,0,1.56-1,3.93,3.93,0,0,0,.94-1.16h.69Z" transform="translate(-266.11 -175.66)"/><path d="M442.57,325.26h-1.06v-6.78a5.88,5.88,0,0,1-1,.74,8.74,8.74,0,0,1-1.12.55v-1a6.57,6.57,0,0,0,1.56-1,3.93,3.93,0,0,0,.94-1.16h.69Z" transform="translate(-266.11 -175.66)"/><path d="M473.74,325.26h-1.06v-6.78a5.88,5.88,0,0,1-1,.74,8.74,8.74,0,0,1-1.12.55v-1a6.57,6.57,0,0,0,1.56-1,3.93,3.93,0,0,0,.94-1.16h.69Z" transform="translate(-266.11 -175.66)"/><path d="M482.05,324.24v1h-5.72a1.86,1.86,0,0,1,.12-.74,4,4,0,0,1,.7-1.15,10.75,10.75,0,0,1,1.39-1.31,11.78,11.78,0,0,0,1.91-1.84A2.19,2.19,0,0,0,481,319a1.42,1.42,0,0,0-.45-1.07,1.66,1.66,0,0,0-1.18-.44,1.63,1.63,0,0,0-1.23.47,1.7,1.7,0,0,0-.47,1.27l-1.09-.11a2.63,2.63,0,0,1,.84-1.86,2.89,2.89,0,0,1,2-.65,2.7,2.7,0,0,1,2,.7A2.25,2.25,0,0,1,482,319a2.59,2.59,0,0,1-.21,1,3.85,3.85,0,0,1-.71,1.06,16,16,0,0,1-1.64,1.52c-.64.54-1.05.9-1.23,1.09a3.79,3.79,0,0,0-.45.58Z" transform="translate(-266.11 -175.66)"/><path d="M511.19,325.26h-1.06v-6.78a5.88,5.88,0,0,1-1,.74,8.74,8.74,0,0,1-1.12.55v-1a6.57,6.57,0,0,0,1.56-1,3.93,3.93,0,0,0,.94-1.16h.69Z" transform="translate(-266.11 -175.66)"/><path d="M513.92,323l1.06-.14a2.33,2.33,0,0,0,.62,1.3,1.55,1.55,0,0,0,1.08.4,1.68,1.68,0,0,0,1.26-.52,1.71,1.71,0,0,0,.52-1.28,1.64,1.64,0,0,0-1.69-1.69,2.89,2.89,0,0,0-.75.12l.11-.93h.17a2.17,2.17,0,0,0,1.23-.36,1.21,1.21,0,0,0,.54-1.09,1.31,1.31,0,0,0-.39-1,1.57,1.57,0,0,0-2.06,0,1.94,1.94,0,0,0-.53,1.17l-1.07-.19a2.75,2.75,0,0,1,.89-1.66,2.56,2.56,0,0,1,1.72-.59,2.91,2.91,0,0,1,1.31.31,2.22,2.22,0,0,1,.91.83,2.13,2.13,0,0,1,.31,1.12,1.84,1.84,0,0,1-.3,1,2,2,0,0,1-.89.73,2,2,0,0,1,1.19.74,2.18,2.18,0,0,1,.43,1.39,2.54,2.54,0,0,1-.83,1.92,2.89,2.89,0,0,1-2.09.79,2.68,2.68,0,0,1-1.89-.68A2.61,2.61,0,0,1,513.92,323Z" transform="translate(-266.11 -175.66)"/><path d="M286.49,356.72h-1.06V350a5.51,5.51,0,0,1-1,.73,7.59,7.59,0,0,1-1.12.55v-1a6.45,6.45,0,0,0,1.56-1,4.11,4.11,0,0,0,.95-1.16h.68Z" transform="translate(-266.11 -175.66)"/><path d="M292.62,356.72v-2.07h-3.75v-1l3.95-5.62h.87v5.62h1.17v1h-1.17v2.07Zm0-3v-3.91l-2.71,3.91Z" transform="translate(-266.11 -175.66)"/><path d="M323.94,356.72h-1.06V350a5.51,5.51,0,0,1-1,.73,7.14,7.14,0,0,1-1.12.55v-1a6.45,6.45,0,0,0,1.56-1,4.11,4.11,0,0,0,.95-1.16h.68Z" transform="translate(-266.11 -175.66)"/><path d="M326.66,354.46l1.12-.1a2,2,0,0,0,.58,1.23,1.57,1.57,0,0,0,1.09.41,1.73,1.73,0,0,0,1.3-.58,2.22,2.22,0,0,0,.53-1.54,2,2,0,0,0-.51-1.43,1.79,1.79,0,0,0-1.34-.53,1.94,1.94,0,0,0-.93.23,1.91,1.91,0,0,0-.65.61l-1-.13.84-4.45H332v1h-3.46l-.46,2.33a2.76,2.76,0,0,1,1.63-.55,2.58,2.58,0,0,1,1.92.79,2.73,2.73,0,0,1,.78,2,3.14,3.14,0,0,1-.69,2,2.73,2.73,0,0,1-2.27,1.05,2.81,2.81,0,0,1-1.93-.66A2.62,2.62,0,0,1,326.66,354.46Z" transform="translate(-266.11 -175.66)"/><path d="M361.39,356.72h-1.06V350a5.51,5.51,0,0,1-1,.73,7.59,7.59,0,0,1-1.12.55v-1a6.86,6.86,0,0,0,1.56-1,4.11,4.11,0,0,0,.95-1.16h.68Z" transform="translate(-266.11 -175.66)"/><path d="M369.63,350.18l-1.06.09a1.88,1.88,0,0,0-.4-.91,1.39,1.39,0,0,0-1.06-.46,1.44,1.44,0,0,0-.89.29,2.45,2.45,0,0,0-.8,1.06,5.75,5.75,0,0,0-.3,2,2.45,2.45,0,0,1,2.11-1.15,2.41,2.41,0,0,1,1.81.78,2.79,2.79,0,0,1,.75,2,3.27,3.27,0,0,1-.36,1.52,2.56,2.56,0,0,1-1,1.07,2.64,2.64,0,0,1-1.4.37,2.68,2.68,0,0,1-2.16-1,4.91,4.91,0,0,1-.84-3.22A5.84,5.84,0,0,1,365,349a2.67,2.67,0,0,1,2.18-1,2.31,2.31,0,0,1,2.46,2.15Zm-4.34,3.74a2.58,2.58,0,0,0,.23,1.05,1.76,1.76,0,0,0,.66.76,1.59,1.59,0,0,0,.88.27,1.48,1.48,0,0,0,1.15-.55,2.09,2.09,0,0,0,.49-1.47,2,2,0,0,0-.48-1.42A1.59,1.59,0,0,0,367,352a1.66,1.66,0,0,0-1.22.52A1.9,1.9,0,0,0,365.29,353.92Z" transform="translate(-266.11 -175.66)"/><path d="M398.84,356.72h-1.06V350a5.51,5.51,0,0,1-1,.73,7.59,7.59,0,0,1-1.12.55v-1a6.65,6.65,0,0,0,1.56-1,4.11,4.11,0,0,0,1-1.16h.68Z" transform="translate(-266.11 -175.66)"/><path d="M401.63,349.2v-1h5.61V349a12,12,0,0,0-1.64,2.34,14.35,14.35,0,0,0-1.25,3,10.84,10.84,0,0,0-.41,2.38h-1.09a10.35,10.35,0,0,1,.4-2.47,12.75,12.75,0,0,1,1.1-2.79,12,12,0,0,1,1.53-2.26Z" transform="translate(-266.11 -175.66)"/><path d="M436.29,356.72h-1.06V350a5.88,5.88,0,0,1-1,.73,7.59,7.59,0,0,1-1.12.55v-1a6.86,6.86,0,0,0,1.56-1,4.06,4.06,0,0,0,.94-1.16h.69Z" transform="translate(-266.11 -175.66)"/><path d="M440.65,352a2,2,0,0,1-1-.69,1.84,1.84,0,0,1-.32-1.08,2.12,2.12,0,0,1,.68-1.59,2.5,2.5,0,0,1,1.81-.64,2.53,2.53,0,0,1,1.82.66,2.13,2.13,0,0,1,.69,1.6,1.78,1.78,0,0,1-.31,1,2,2,0,0,1-1,.69,2.29,2.29,0,0,1,1.21.84,2.26,2.26,0,0,1,.42,1.38,2.49,2.49,0,0,1-.79,1.87,2.86,2.86,0,0,1-2.07.75,2.82,2.82,0,0,1-2.06-.76,2.48,2.48,0,0,1-.79-1.89,2.28,2.28,0,0,1,.43-1.42A2.12,2.12,0,0,1,440.65,352Zm-.56,2.2a2,2,0,0,0,.22.88,1.49,1.49,0,0,0,.64.65,1.83,1.83,0,0,0,.92.24,1.74,1.74,0,0,0,1.25-.49,1.67,1.67,0,0,0,.5-1.25,1.72,1.72,0,0,0-.51-1.27,1.77,1.77,0,0,0-1.28-.5,1.67,1.67,0,0,0-1.24.49A1.72,1.72,0,0,0,440.09,354.23Zm.35-4a1.35,1.35,0,0,0,.39,1,1.42,1.42,0,0,0,1,.39,1.37,1.37,0,0,0,1-.39,1.26,1.26,0,0,0,.39-.94,1.33,1.33,0,0,0-.4-1,1.41,1.41,0,0,0-1-.4,1.39,1.39,0,0,0-1,.39A1.25,1.25,0,0,0,440.44,350.23Z" transform="translate(-266.11 -175.66)"/><path d="M473.74,356.72h-1.06V350a5.88,5.88,0,0,1-1,.73,7.59,7.59,0,0,1-1.12.55v-1a6.86,6.86,0,0,0,1.56-1,4.06,4.06,0,0,0,.94-1.16h.69Z" transform="translate(-266.11 -175.66)"/><path d="M476.62,354.72l1-.09a1.79,1.79,0,0,0,.5,1,1.35,1.35,0,0,0,.94.33,1.62,1.62,0,0,0,.86-.23,1.72,1.72,0,0,0,.6-.6,3.47,3.47,0,0,0,.4-1,5.14,5.14,0,0,0,.16-1.3,1.79,1.79,0,0,0,0-.21,2.37,2.37,0,0,1-.87.82,2.33,2.33,0,0,1-1.19.32,2.41,2.41,0,0,1-1.82-.78,2.85,2.85,0,0,1-.75-2.06,2.92,2.92,0,0,1,.78-2.12,2.62,2.62,0,0,1,1.95-.8,2.8,2.8,0,0,1,1.54.45,2.85,2.85,0,0,1,1.06,1.3,6.21,6.21,0,0,1,.37,2.44,7.88,7.88,0,0,1-.36,2.64,3.1,3.1,0,0,1-1.07,1.5,2.82,2.82,0,0,1-1.67.51,2.29,2.29,0,0,1-2.44-2.15ZM481,350.9a2.08,2.08,0,0,0-.49-1.45,1.54,1.54,0,0,0-1.17-.54,1.61,1.61,0,0,0-1.24.58,2.12,2.12,0,0,0-.52,1.5,1.81,1.81,0,0,0,.5,1.34,1.62,1.62,0,0,0,1.23.52,1.56,1.56,0,0,0,1.21-.52A2,2,0,0,0,481,350.9Z" transform="translate(-266.11 -175.66)"/><path d="M512.77,355.7v1h-5.72a1.81,1.81,0,0,1,.12-.73,4.08,4.08,0,0,1,.7-1.16,12.33,12.33,0,0,1,1.39-1.31,11.4,11.4,0,0,0,1.91-1.83,2.21,2.21,0,0,0,.5-1.28,1.44,1.44,0,0,0-.45-1.07,1.63,1.63,0,0,0-1.18-.43,1.66,1.66,0,0,0-1.23.46,1.76,1.76,0,0,0-.47,1.28l-1.09-.12a2.71,2.71,0,0,1,.84-1.86,2.88,2.88,0,0,1,2-.64,2.73,2.73,0,0,1,2,.69,2.25,2.25,0,0,1,.73,1.71,2.67,2.67,0,0,1-.21,1,4,4,0,0,1-.71,1.05A17.08,17.08,0,0,1,510.2,354c-.64.53-1,.9-1.23,1.09a3.74,3.74,0,0,0-.45.57Z" transform="translate(-266.11 -175.66)"/><path d="M513.91,352.45a7.91,7.91,0,0,1,.32-2.47,3.05,3.05,0,0,1,.94-1.44,2.39,2.39,0,0,1,1.57-.51,2.53,2.53,0,0,1,1.22.28,2.41,2.41,0,0,1,.87.81,4.25,4.25,0,0,1,.54,1.29,8.49,8.49,0,0,1,.19,2,7.88,7.88,0,0,1-.31,2.46,3,3,0,0,1-.94,1.45,2.63,2.63,0,0,1-3.54-.39A5.7,5.7,0,0,1,513.91,352.45Zm1.09,0a5.44,5.44,0,0,0,.5,2.84,1.43,1.43,0,0,0,2.47,0,8.32,8.32,0,0,0,0-5.68,1.49,1.49,0,0,0-1.25-.7,1.39,1.39,0,0,0-1.17.62A5.55,5.55,0,0,0,515,352.45Z" transform="translate(-266.11 -175.66)"/><path d="M289,387.17v1h-5.72a1.86,1.86,0,0,1,.12-.74,4,4,0,0,1,.7-1.15,10.13,10.13,0,0,1,1.39-1.31,12.22,12.22,0,0,0,1.91-1.84,2.21,2.21,0,0,0,.5-1.28,1.39,1.39,0,0,0-.46-1.06,1.62,1.62,0,0,0-1.18-.44,1.66,1.66,0,0,0-1.22.46,1.74,1.74,0,0,0-.47,1.28l-1.09-.11a2.67,2.67,0,0,1,.84-1.87,2.93,2.93,0,0,1,2-.64,2.73,2.73,0,0,1,2,.69,2.25,2.25,0,0,1,.73,1.72,2.66,2.66,0,0,1-.21,1A4.26,4.26,0,0,1,288,384a18.64,18.64,0,0,1-1.64,1.52c-.64.54-1.05.9-1.23,1.09a3.36,3.36,0,0,0-.45.58Z" transform="translate(-266.11 -175.66)"/><path d="M294.1,388.19H293v-6.78a4.8,4.8,0,0,1-1,.73,6.29,6.29,0,0,1-1.11.55v-1a6.31,6.31,0,0,0,1.55-1,4,4,0,0,0,1-1.16h.69Z" transform="translate(-266.11 -175.66)"/><path d="M325.52,387.17v1H319.8a1.86,1.86,0,0,1,.12-.74,4,4,0,0,1,.7-1.15A10.93,10.93,0,0,1,322,385a12,12,0,0,0,1.9-1.84,2.21,2.21,0,0,0,.5-1.28,1.41,1.41,0,0,0-.45-1.06,1.64,1.64,0,0,0-1.18-.44,1.7,1.7,0,0,0-1.23.46,1.78,1.78,0,0,0-.47,1.28L320,382a2.72,2.72,0,0,1,.85-1.87,2.89,2.89,0,0,1,2-.64,2.78,2.78,0,0,1,2,.69,2.28,2.28,0,0,1,.72,1.72,2.66,2.66,0,0,1-.21,1,4,4,0,0,1-.71,1.06A16.88,16.88,0,0,1,323,385.5c-.64.54-1,.9-1.23,1.09a2.6,2.6,0,0,0-.45.58Z" transform="translate(-266.11 -175.66)"/><path d="M332.25,387.17v1h-5.72a1.86,1.86,0,0,1,.12-.74,4,4,0,0,1,.7-1.15,10.75,10.75,0,0,1,1.39-1.31,11.77,11.77,0,0,0,1.91-1.84,2.21,2.21,0,0,0,.5-1.28,1.41,1.41,0,0,0-.45-1.06,1.64,1.64,0,0,0-1.18-.44,1.7,1.7,0,0,0-1.23.46,1.78,1.78,0,0,0-.47,1.28l-1.09-.11a2.71,2.71,0,0,1,.84-1.87,2.93,2.93,0,0,1,2-.64,2.73,2.73,0,0,1,2,.69,2.25,2.25,0,0,1,.73,1.72,2.66,2.66,0,0,1-.21,1,4,4,0,0,1-.71,1.06,17.27,17.27,0,0,1-1.64,1.52c-.64.54-1,.9-1.23,1.09a3.36,3.36,0,0,0-.45.58Z" transform="translate(-266.11 -175.66)"/><path d="M363,387.17v1h-5.72a1.86,1.86,0,0,1,.12-.74,4,4,0,0,1,.7-1.15,10.75,10.75,0,0,1,1.39-1.31,11.77,11.77,0,0,0,1.91-1.84,2.21,2.21,0,0,0,.5-1.28,1.41,1.41,0,0,0-.45-1.06,1.64,1.64,0,0,0-1.18-.44,1.7,1.7,0,0,0-1.23.46,1.78,1.78,0,0,0-.47,1.28l-1.09-.11a2.71,2.71,0,0,1,.84-1.87,2.93,2.93,0,0,1,2-.64,2.78,2.78,0,0,1,2,.69,2.28,2.28,0,0,1,.72,1.72,2.66,2.66,0,0,1-.21,1A4,4,0,0,1,362,384a17.27,17.27,0,0,1-1.64,1.52c-.63.54-1,.9-1.23,1.09a2.87,2.87,0,0,0-.44.58Z" transform="translate(-266.11 -175.66)"/><path d="M364.12,385.9l1.06-.14a2.27,2.27,0,0,0,.63,1.3,1.51,1.51,0,0,0,1.07.4,1.72,1.72,0,0,0,1.27-.52,1.76,1.76,0,0,0,.51-1.29A1.64,1.64,0,0,0,367,384a3,3,0,0,0-.75.12l.11-.94.18,0a2.16,2.16,0,0,0,1.22-.36,1.21,1.21,0,0,0,.54-1.09,1.31,1.31,0,0,0-.39-1,1.41,1.41,0,0,0-1-.38,1.45,1.45,0,0,0-1,.39,1.94,1.94,0,0,0-.53,1.17l-1.06-.19a2.71,2.71,0,0,1,.88-1.66,2.58,2.58,0,0,1,1.72-.59,2.78,2.78,0,0,1,1.31.31,2.22,2.22,0,0,1,.91.83,2.13,2.13,0,0,1,.32,1.11,1.81,1.81,0,0,1-.31,1,2,2,0,0,1-.89.74,2.07,2.07,0,0,1,1.2.73,2.26,2.26,0,0,1,.42,1.4,2.51,2.51,0,0,1-.83,1.92,2.89,2.89,0,0,1-2.09.79,2.68,2.68,0,0,1-1.89-.68A2.63,2.63,0,0,1,364.12,385.9Z" transform="translate(-266.11 -175.66)"/><path d="M400.42,387.17v1H394.7a1.86,1.86,0,0,1,.12-.74,4,4,0,0,1,.7-1.15,10.29,10.29,0,0,1,1.4-1.31,12,12,0,0,0,1.9-1.84,2.21,2.21,0,0,0,.5-1.28,1.41,1.41,0,0,0-.45-1.06,1.64,1.64,0,0,0-1.18-.44,1.7,1.7,0,0,0-1.23.46,1.78,1.78,0,0,0-.47,1.28L394.9,382a2.68,2.68,0,0,1,.85-1.87,2.89,2.89,0,0,1,2-.64,2.78,2.78,0,0,1,2,.69,2.28,2.28,0,0,1,.72,1.72,2.66,2.66,0,0,1-.21,1,4,4,0,0,1-.71,1.06,16.09,16.09,0,0,1-1.64,1.52c-.63.54-1,.9-1.23,1.09a2.87,2.87,0,0,0-.44.58Z" transform="translate(-266.11 -175.66)"/><path d="M405,388.19v-2.08h-3.76v-1l4-5.61H406v5.61h1.17v1H406v2.08Zm0-3.05v-3.91l-2.71,3.91Z" transform="translate(-266.11 -175.66)"/><path d="M437.87,387.17v1h-5.72a1.86,1.86,0,0,1,.12-.74,4,4,0,0,1,.7-1.15,10.75,10.75,0,0,1,1.39-1.31,11.77,11.77,0,0,0,1.91-1.84,2.21,2.21,0,0,0,.5-1.28,1.41,1.41,0,0,0-.45-1.06,1.64,1.64,0,0,0-1.18-.44,1.7,1.7,0,0,0-1.23.46,1.78,1.78,0,0,0-.47,1.28l-1.09-.11a2.71,2.71,0,0,1,.84-1.87,2.93,2.93,0,0,1,2-.64,2.73,2.73,0,0,1,2,.69,2.25,2.25,0,0,1,.73,1.72,2.66,2.66,0,0,1-.21,1,4,4,0,0,1-.71,1.06,17.27,17.27,0,0,1-1.64,1.52c-.63.54-1,.9-1.23,1.09a3.36,3.36,0,0,0-.45.58Z" transform="translate(-266.11 -175.66)"/><path d="M439,385.92l1.12-.1a1.93,1.93,0,0,0,.58,1.23,1.57,1.57,0,0,0,1.09.41,1.66,1.66,0,0,0,1.29-.58,2.15,2.15,0,0,0,.54-1.53,2,2,0,0,0-.51-1.44,1.79,1.79,0,0,0-1.34-.53,1.84,1.84,0,0,0-.93.24,1.79,1.79,0,0,0-.65.6l-1-.13.84-4.44h4.31v1h-3.46l-.47,2.33a2.84,2.84,0,0,1,1.64-.54,2.61,2.61,0,0,1,1.92.78,2.74,2.74,0,0,1,.77,2,3.11,3.11,0,0,1-.68,2,2.72,2.72,0,0,1-2.27,1.05,2.76,2.76,0,0,1-1.93-.66A2.56,2.56,0,0,1,439,385.92Z" transform="translate(-266.11 -175.66)"/><path d="M475.32,387.17v1H469.6a1.86,1.86,0,0,1,.12-.74,4,4,0,0,1,.7-1.15,10.75,10.75,0,0,1,1.39-1.31,11.77,11.77,0,0,0,1.91-1.84,2.21,2.21,0,0,0,.5-1.28,1.41,1.41,0,0,0-.45-1.06,1.64,1.64,0,0,0-1.18-.44,1.7,1.7,0,0,0-1.23.46,1.78,1.78,0,0,0-.47,1.28L469.8,382a2.71,2.71,0,0,1,.84-1.87,2.93,2.93,0,0,1,2-.64,2.73,2.73,0,0,1,2,.69,2.25,2.25,0,0,1,.73,1.72,2.66,2.66,0,0,1-.21,1,4,4,0,0,1-.71,1.06,17.27,17.27,0,0,1-1.64,1.52c-.63.54-1,.9-1.23,1.09a2.87,2.87,0,0,0-.44.58Z" transform="translate(-266.11 -175.66)"/><path d="M482,381.65l-1.06.08a1.88,1.88,0,0,0-.4-.91,1.41,1.41,0,0,0-1.06-.45,1.43,1.43,0,0,0-.89.28,2.42,2.42,0,0,0-.8,1.07,5.72,5.72,0,0,0-.3,2,2.45,2.45,0,0,1,2.11-1.15,2.41,2.41,0,0,1,1.81.78,2.81,2.81,0,0,1,.74,2,3.26,3.26,0,0,1-.35,1.51,2.5,2.5,0,0,1-1,1.07,2.64,2.64,0,0,1-1.4.37,2.74,2.74,0,0,1-2.17-1,5,5,0,0,1-.83-3.23,5.77,5.77,0,0,1,.92-3.65,2.67,2.67,0,0,1,2.18-1,2.46,2.46,0,0,1,1.68.57A2.49,2.49,0,0,1,482,381.65Zm-4.34,3.73a2.51,2.51,0,0,0,.23,1.05,1.79,1.79,0,0,0,.66.77,1.64,1.64,0,0,0,.88.26,1.5,1.5,0,0,0,1.15-.54,2.12,2.12,0,0,0,.49-1.48,2,2,0,0,0-.48-1.41,1.56,1.56,0,0,0-1.21-.52,1.63,1.63,0,0,0-1.22.52A1.86,1.86,0,0,0,477.64,385.38Z" transform="translate(-266.11 -175.66)"/><path d="M512.77,387.17v1h-5.72a1.86,1.86,0,0,1,.12-.74,4,4,0,0,1,.7-1.15,10.75,10.75,0,0,1,1.39-1.31,11.77,11.77,0,0,0,1.91-1.84,2.21,2.21,0,0,0,.5-1.28,1.41,1.41,0,0,0-.45-1.06,1.64,1.64,0,0,0-1.18-.44,1.7,1.7,0,0,0-1.23.46,1.78,1.78,0,0,0-.47,1.28l-1.09-.11a2.71,2.71,0,0,1,.84-1.87,2.93,2.93,0,0,1,2-.64,2.73,2.73,0,0,1,2,.69,2.25,2.25,0,0,1,.73,1.72,2.66,2.66,0,0,1-.21,1,4,4,0,0,1-.71,1.06,17.27,17.27,0,0,1-1.64,1.52c-.64.54-1,.9-1.23,1.09a3.36,3.36,0,0,0-.45.58Z" transform="translate(-266.11 -175.66)"/><path d="M514,380.66v-1h5.61v.83a11.41,11.41,0,0,0-1.64,2.34,13.92,13.92,0,0,0-1.25,3,10.74,10.74,0,0,0-.41,2.38h-1.1a10.88,10.88,0,0,1,.41-2.47,12.37,12.37,0,0,1,1.1-2.79,12.6,12.6,0,0,1,1.52-2.27Z" transform="translate(-266.11 -175.66)"/><polyline class="cls-6" points="41.52 77.78 78.49 77.78 78.49 95.92"/><line class="cls-6" x1="3.54" y1="96.26" x2="265.69" y2="96.26"/><text x="-266.11" y="-175.66"/><path d="M288.84,418.44v1h-5.73a1.66,1.66,0,0,1,.13-.73,3.56,3.56,0,0,1,.7-1.16,11.52,11.52,0,0,1,1.39-1.31,12.27,12.27,0,0,0,1.91-1.83,2.19,2.19,0,0,0,.49-1.28,1.44,1.44,0,0,0-.45-1.07,1.63,1.63,0,0,0-1.18-.43,1.66,1.66,0,0,0-1.23.46,1.71,1.71,0,0,0-.46,1.27l-1.1-.11a2.72,2.72,0,0,1,.85-1.86,2.86,2.86,0,0,1,2-.64,2.76,2.76,0,0,1,2,.69,2.27,2.27,0,0,1,.72,1.71,2.59,2.59,0,0,1-.21,1,4,4,0,0,1-.7,1.06,18.4,18.4,0,0,1-1.64,1.53,14.48,14.48,0,0,0-1.23,1.09,3.74,3.74,0,0,0-.45.57Z" transform="translate(-266.11 -175.66)"/><path d="M291.61,414.77a2,2,0,0,1-1-.69,1.84,1.84,0,0,1-.32-1.08,2.12,2.12,0,0,1,.68-1.59,2.86,2.86,0,0,1,3.63,0,2.1,2.1,0,0,1,.7,1.6,1.79,1.79,0,0,1-.32,1.05,2,2,0,0,1-1,.69,2.22,2.22,0,0,1,1.63,2.22,2.49,2.49,0,0,1-.79,1.87,3.2,3.2,0,0,1-4.13,0A2.54,2.54,0,0,1,290,417a2.35,2.35,0,0,1,.43-1.42A2.15,2.15,0,0,1,291.61,414.77Zm-.55,2.19a1.93,1.93,0,0,0,.21.88,1.51,1.51,0,0,0,.64.66,1.86,1.86,0,0,0,.92.24,1.74,1.74,0,0,0,1.26-.49,1.84,1.84,0,0,0,0-2.52,1.76,1.76,0,0,0-1.28-.5,1.68,1.68,0,0,0-1.73,1.73Zm.34-4a1.36,1.36,0,0,0,.39,1,1.42,1.42,0,0,0,1,.39,1.37,1.37,0,0,0,1-.39,1.28,1.28,0,0,0,.39-1,1.32,1.32,0,0,0-.4-1,1.37,1.37,0,0,0-1-.4,1.4,1.4,0,0,0-1,.39A1.24,1.24,0,0,0,291.4,413Z" transform="translate(-266.11 -175.66)"/></svg>