<svg id="Layer_1" data-name="Layer 1" xmlns="http://www.w3.org/2000/svg" viewBox="0 0 394.72 44.51"><defs><style>.cls-1{fill:#fff;}.cls-2,.cls-3{fill:none;stroke:#fff;stroke-miterlimit:10;}.cls-2{stroke-width:2.56px;}.cls-3{stroke-width:1.71px;}</style></defs><path class="cls-1" d="M236.86,283.91a9.91,9.91,0,0,1-9.81,6.64c-5.78,0-10.64-3.78-10.64-11.38,0-6.86,4.24-11.77,10.82-11.77a9.48,9.48,0,0,1,9.44,6.57l-3.75.93a6,6,0,0,0-5.75-4.34c-3.63,0-6.36,3-6.36,8.46,0,6.39,3.41,8.36,6.39,8.36a6.25,6.25,0,0,0,6-4.52Z" transform="translate(-167.06 -267.4)"/><path class="cls-1" d="M239.6,282.21a8.24,8.24,0,1,1,8.24,8.21A8.06,8.06,0,0,1,239.6,282.21Zm12.48,0c0-3.65-1.88-5.5-4.24-5.5s-4.25,1.85-4.25,5.5,1.85,5.48,4.25,5.48S252.08,285.84,252.08,282.21Z" transform="translate(-167.06 -267.4)"/><path class="cls-1" d="M271.24,290l0-2.76v-6.74c0-2.3-.86-3.47-2.62-3.47a5.57,5.57,0,0,0-4.52,2.83v7.38l0,2.76h-3.88l0-2.76v-10l0-2.76H264v2.67h.06a7.13,7.13,0,0,1,5.78-3.14c3.2,0,5.23,1.94,5.23,5.85v7.38l0,2.76Z" transform="translate(-167.06 -267.4)"/><path class="cls-1" d="M289.1,277.17h-4v8.46c0,1.32.36,1.9,1.75,1.9a7.76,7.76,0,0,0,2.34-.46v2.77a7.78,7.78,0,0,1-3.26.58c-2.92,0-4.65-1-4.65-4.48v-8.77h-2.76v-2.73h2.86l.46-4.68h3.26v4.68h4Z" transform="translate(-167.06 -267.4)"/><path class="cls-1" d="M292.85,277.42c1.14-2.21,3.54-3.48,7-3.48,3.84,0,6.82,1.54,6.82,5.81v6.68A21.42,21.42,0,0,0,307,290H303.4c-.15-.86-.21-1.81-.28-2.58h-.06a6.71,6.71,0,0,1-5.78,3c-2.73,0-5.13-1.44-5.13-4.42,0-4.95,6.64-5.66,10.88-5.69v-.65c0-2.12-1.17-3.13-3.41-3.13a4.53,4.53,0,0,0-3.94,2.06ZM303,283v-.64c-3.13,0-6.92.7-6.92,3.41,0,1.23.8,2.06,2.31,2.06A4.62,4.62,0,0,0,303,283Z" transform="translate(-167.06 -267.4)"/><path class="cls-1" d="M325.88,285.84a7.37,7.37,0,0,1-7.07,4.58,7.64,7.64,0,0,1-8-8.08c0-4.83,3.17-8.4,8-8.4,4.46,0,6.55,3.14,6.82,4.56l-3.32.92a3.73,3.73,0,0,0-3.59-2.71c-2.19,0-3.91,1.82-3.91,5.35,0,3.72,1.81,5.6,4.06,5.6a4.11,4.11,0,0,0,3.84-2.83Z" transform="translate(-167.06 -267.4)"/><path class="cls-1" d="M338.7,277.17h-4v8.46c0,1.32.36,1.9,1.75,1.9a7.62,7.62,0,0,0,2.33-.46v2.77a7.69,7.69,0,0,1-3.25.58c-2.93,0-4.65-1-4.65-4.48v-8.77h-2.77v-2.73H331l.47-4.68h3.26v4.68h4Z" transform="translate(-167.06 -267.4)"/><path class="cls-1" d="M359.46,277.17h-4v8.46c0,1.32.37,1.9,1.75,1.9a7.69,7.69,0,0,0,2.34-.46v2.77a7.74,7.74,0,0,1-3.26.58c-2.92,0-4.64-1-4.64-4.48v-8.77h-2.77v-2.73h2.86l.46-4.68h3.26v4.68h4Z" transform="translate(-167.06 -267.4)"/><path class="cls-1" d="M367.42,277h.06a6.94,6.94,0,0,1,5.66-3c3.2,0,5.23,1.94,5.23,5.85v7.38l0,2.76h-3.88l0-2.76v-6.74c0-2.3-.87-3.47-2.62-3.47a5.57,5.57,0,0,0-4.52,2.83v7.38l0,2.76h-3.87l0-2.76V270.75l0-2.77h3.87l0,2.77Z" transform="translate(-167.06 -267.4)"/><path class="cls-1" d="M398,287a8.56,8.56,0,0,1-7.26,3.41c-4.77,0-8.18-2.82-8.18-7.93,0-5.29,3.44-8.55,7.93-8.55,5.72,0,7.91,4.37,7.75,8.92h-12c.09,3.14,1.91,4.8,4.61,4.8a6.08,6.08,0,0,0,4.43-2.06Zm-11.6-6.49h7.91a3.6,3.6,0,0,0-3.75-3.93C388.36,276.59,386.83,277.79,386.36,280.52Z" transform="translate(-167.06 -267.4)"/><path class="cls-1" d="M409.8,279c0-6.34,4-11.56,10.88-11.56s10.91,5.22,10.91,11.56-4,11.59-10.91,11.59S409.8,285.32,409.8,279Zm17.27,0c0-5.6-2.73-8.4-6.39-8.4s-6.4,2.8-6.4,8.4,2.74,8.42,6.4,8.42S427.07,284.58,427.07,279Z" transform="translate(-167.06 -267.4)"/><path class="cls-1" d="M436,287.2v-10l0-2.76h3.57v4.61h.06c1.26-3.57,3.45-5.08,5.6-5.08a3.46,3.46,0,0,1,.64.07v3.47a4.19,4.19,0,0,0-.89-.09c-2.89,0-4.89,3.57-5.13,6.27v3.51l0,2.76H436Z" transform="translate(-167.06 -267.4)"/><path class="cls-1" d="M453,283.94a1.34,1.34,0,0,0-1,1.26c0,.95,1.14,1.41,2.59,1.44l4.21.13c3.93.12,6,1.63,6,4.42,0,3.72-3.69,5.38-9.25,5.38-4.67,0-7.93-1.16-7.93-3.84,0-1.51,1-2.86,3.13-3.38v-.06a3.29,3.29,0,0,1-2.27-3,3.52,3.52,0,0,1,2.61-3.13,4.55,4.55,0,0,1-2.4-4.09c0-3.14,2.68-5.17,6.95-5.17a9.21,9.21,0,0,1,4.74,1.14,3.88,3.88,0,0,1,3.56-2.37,3.09,3.09,0,0,1,1.08.19v2.92a5.82,5.82,0,0,0-1.41-.22,2.06,2.06,0,0,0-1.79.83,4.36,4.36,0,0,1,.8,2.62c0,3.16-2.67,5.19-7,5.19A10.62,10.62,0,0,1,453,283.94Zm.09,5.9C452,290.24,451,291,451,292c0,1.23,1.51,2.06,5.13,2.06,3.45,0,5.23-.73,5.23-2.18,0-.71-.4-1.84-2.74-1.91Zm6-10.73c0-1.75-1.29-2.68-3.41-2.68s-3.38.93-3.38,2.68,1.23,2.67,3.38,2.67S459.05,280.86,459.05,279.11Z" transform="translate(-167.06 -267.4)"/><path class="cls-1" d="M468,277.42c1.14-2.21,3.54-3.48,7-3.48,3.85,0,6.83,1.54,6.83,5.81v6.68a21.42,21.42,0,0,0,.28,3.53h-3.57c-.15-.86-.22-1.81-.28-2.58h-.06a6.71,6.71,0,0,1-5.78,3c-2.73,0-5.13-1.44-5.13-4.42,0-4.95,6.64-5.66,10.88-5.69v-.65c0-2.12-1.17-3.13-3.41-3.13a4.53,4.53,0,0,0-3.94,2.06ZM478.18,283v-.64c-3.14,0-6.92.7-6.92,3.41,0,1.23.8,2.06,2.31,2.06A4.62,4.62,0,0,0,478.18,283Z" transform="translate(-167.06 -267.4)"/><path class="cls-1" d="M497.83,290l0-2.76v-6.74c0-2.3-.86-3.47-2.61-3.47a5.54,5.54,0,0,0-4.52,2.83v7.38l0,2.76h-3.88l0-2.76v-10l0-2.76h3.73v2.67h.06a7.11,7.11,0,0,1,5.78-3.14c3.19,0,5.22,1.94,5.22,5.85v7.38l0,2.76Z" transform="translate(-167.06 -267.4)"/><path class="cls-1" d="M506.69,290l0-2.76v-10l0-2.76h3.87l0,2.76v10l0,2.76Zm0-18.14V268h3.81v3.84Z" transform="translate(-167.06 -267.4)"/><path class="cls-1" d="M515.24,274.44h12.85v2.12l-8.61,10.61v.06h8.7V290H514.53v-2.09l8.58-10.64v-.06h-7.87Z" transform="translate(-167.06 -267.4)"/><path class="cls-1" d="M546.75,287a8.53,8.53,0,0,1-7.25,3.41c-4.77,0-8.18-2.82-8.18-7.93,0-5.29,3.44-8.55,7.93-8.55,5.72,0,7.9,4.37,7.75,8.92H535c.09,3.14,1.9,4.8,4.61,4.8a6.12,6.12,0,0,0,4.43-2.06Zm-11.59-6.49h7.9a3.6,3.6,0,0,0-3.75-3.93C537.16,276.59,535.62,277.79,535.16,280.52Z" transform="translate(-167.06 -267.4)"/><path class="cls-1" d="M551.24,287.2v-10l0-2.76h3.57v4.61h.06c1.26-3.57,3.45-5.08,5.6-5.08a3.46,3.46,0,0,1,.64.07v3.47a4.19,4.19,0,0,0-.89-.09c-2.89,0-4.89,3.57-5.13,6.27v3.51l0,2.76h-3.88Z" transform="translate(-167.06 -267.4)"/><path class="cls-1" d="M218.33,306.38v3.49l0,1.69H216.7V298.69H222c2,0,4.62.38,4.62,3.76s-2.52,3.93-4.62,3.93Zm0-1.42h3.46c1.68,0,3.08-.33,3.08-2.47s-1.51-2.38-3.08-2.38h-3.46Z" transform="translate(-167.06 -267.4)"/><path class="cls-1" d="M228.74,310v-5.84l0-1.58h1.53v3h0c.79-2.36,2.17-3.29,3.47-3.29a1.73,1.73,0,0,1,.36,0v1.46a2.3,2.3,0,0,0-.36,0c-1.93,0-3.29,2.6-3.47,4.22v3.54h-1.58Z" transform="translate(-167.06 -267.4)"/><path class="cls-1" d="M235.9,311.56l0-1.56v-5.84l0-1.58h1.59l0,1.58V310l0,1.56Zm0-10.87v-2h1.55v2Z" transform="translate(-167.06 -267.4)"/><path class="cls-1" d="M246.92,311.56l0-1.56v-3.89c0-1.62-.58-2.43-1.82-2.43a3.75,3.75,0,0,0-3.15,2V310l0,1.56H240.4l0-1.56v-5.84l0-1.58h1.53v1.55h0a4.05,4.05,0,0,1,3.36-1.8c1.95,0,3.16,1.26,3.16,3.63v5.6Z" transform="translate(-167.06 -267.4)"/><path class="cls-1" d="M259,309.46a4.36,4.36,0,0,1-8.23-2.31c0-2.77,1.71-4.82,4.41-4.82a3.93,3.93,0,0,1,3.71,2.26l-1.35.64a2.7,2.7,0,0,0-2.43-1.61c-1.51,0-2.72,1.23-2.72,3.41s1.21,3.47,2.77,3.47a3,3,0,0,0,2.59-1.66Z" transform="translate(-167.06 -267.4)"/><path class="cls-1" d="M269.08,310.1a5.32,5.32,0,0,1-4,1.72,4.24,4.24,0,0,1-4.58-4.54c0-3.08,1.91-4.95,4.43-4.95,3.17,0,4.36,2.39,4.23,5h-7.07a3,3,0,0,0,3.11,3.15,4.31,4.31,0,0,0,2.92-1.3Zm-6.86-3.94h5.31a2.39,2.39,0,0,0-2.5-2.56A2.69,2.69,0,0,0,262.22,306.16Z" transform="translate(-167.06 -267.4)"/><path class="cls-1" d="M276.13,303.82h-2.46v5.55c0,.79.19,1.17,1,1.17a4.32,4.32,0,0,0,1.49-.31v1.28a4.9,4.9,0,0,1-1.74.31c-1.3,0-2.34-.42-2.34-2.33v-5.67h-1.7v-1.24h1.73l.22-2.56h1.3v2.56h2.46Z" transform="translate(-167.06 -267.4)"/><path class="cls-1" d="M277.71,307.08a4.58,4.58,0,1,1,4.58,4.74A4.58,4.58,0,0,1,277.71,307.08Zm7.53,0c0-2.18-1.35-3.46-2.95-3.46s-3,1.28-3,3.46,1.34,3.44,3,3.44S285.24,309.26,285.24,307.08Z" transform="translate(-167.06 -267.4)"/><path class="cls-1" d="M295.72,311.56v-5.45c0-1.62-.57-2.43-1.81-2.43a3.78,3.78,0,0,0-3.16,2V310l0,1.56H289.2l0-1.56v-5.84l0-1.58h1.53v1.55h0a4.09,4.09,0,0,1,3.37-1.8c1.95,0,3.15,1.26,3.15,3.63v4l0,1.56Z" transform="translate(-167.06 -267.4)"/><path class="cls-1" d="M315.82,308.27a5.8,5.8,0,0,1-5.65,3.64c-3.37,0-6.19-2.18-6.19-6.67,0-3.94,2.37-6.89,6.28-6.89a5.62,5.62,0,0,1,5.47,3.51l-1.47.59a4.22,4.22,0,0,0-4-2.66c-2.57,0-4.5,2-4.5,5.4,0,4,2.41,5.27,4.48,5.27a4.57,4.57,0,0,0,4.2-2.73Z" transform="translate(-167.06 -267.4)"/><path class="cls-1" d="M325.76,310.1a5.3,5.3,0,0,1-4,1.72,4.24,4.24,0,0,1-4.58-4.54c0-3.08,1.91-4.95,4.43-4.95,3.17,0,4.36,2.39,4.23,5h-7.07a3,3,0,0,0,3.11,3.15,4.31,4.31,0,0,0,2.92-1.3Zm-6.86-3.94h5.31a2.39,2.39,0,0,0-2.5-2.56A2.69,2.69,0,0,0,318.9,306.16Z" transform="translate(-167.06 -267.4)"/><path class="cls-1" d="M334.78,311.56v-5.45c0-1.62-.57-2.43-1.81-2.43a3.78,3.78,0,0,0-3.16,2V310l0,1.56h-1.58l0-1.56v-5.84l0-1.58h1.53v1.55h0a4.07,4.07,0,0,1,3.37-1.8c1.95,0,3.15,1.26,3.15,3.63v4l0,1.56Z" transform="translate(-167.06 -267.4)"/><path class="cls-1" d="M343.81,303.82h-2.47v5.55c0,.79.2,1.17,1.05,1.17a4.32,4.32,0,0,0,1.49-.31v1.28a4.9,4.9,0,0,1-1.74.31c-1.3,0-2.34-.42-2.34-2.33v-5.67h-1.7v-1.24h1.73l.22-2.56h1.29v2.56h2.47Z" transform="translate(-167.06 -267.4)"/><path class="cls-1" d="M354,310.1a5.28,5.28,0,0,1-4,1.72,4.24,4.24,0,0,1-4.57-4.54c0-3.08,1.91-4.95,4.43-4.95,3.17,0,4.36,2.39,4.23,5H347a3,3,0,0,0,3.12,3.15,4.33,4.33,0,0,0,2.92-1.3Zm-6.86-3.94h5.32a2.39,2.39,0,0,0-2.51-2.56A2.7,2.7,0,0,0,347.1,306.16Z" transform="translate(-167.06 -267.4)"/><path class="cls-1" d="M356.48,310v-5.84l0-1.58H358v3h0c.79-2.36,2.18-3.29,3.48-3.29a1.86,1.86,0,0,1,.36,0v1.46a2.36,2.36,0,0,0-.36,0c-1.93,0-3.3,2.6-3.48,4.22v2l0,1.56h-1.59Z" transform="translate(-167.06 -267.4)"/><path class="cls-1" d="M366.22,302.58H368v-1.15c0-2.34,1.23-2.87,2.7-2.87a4.22,4.22,0,0,1,1.05.13V300a4.14,4.14,0,0,0-1-.13c-1,0-1.23.49-1.23,1.53v1.21h2.2v1.24h-2.2V310l0,1.56H368v-7.74h-1.76Z" transform="translate(-167.06 -267.4)"/><path class="cls-1" d="M372.79,307.08a4.58,4.58,0,1,1,4.57,4.74A4.57,4.57,0,0,1,372.79,307.08Zm7.53,0c0-2.18-1.35-3.46-3-3.46s-2.95,1.28-2.95,3.46,1.33,3.44,2.95,3.44S380.32,309.26,380.32,307.08Z" transform="translate(-167.06 -267.4)"/><path class="cls-1" d="M384.29,310v-5.84l0-1.58h1.53v3h0c.79-2.36,2.18-3.29,3.47-3.29a1.73,1.73,0,0,1,.36,0v1.46a2.23,2.23,0,0,0-.36,0c-1.92,0-3.29,2.6-3.47,4.22v2l0,1.56h-1.59Z" transform="translate(-167.06 -267.4)"/><path class="cls-1" d="M399.79,300.11v9.76l0,1.69h-1.66l0-1.69v-9.76H393.9v-1.42h10.16v1.42Z" transform="translate(-167.06 -267.4)"/><path class="cls-1" d="M407.49,304.09h0a4,4,0,0,1,3.33-1.76c1.95,0,3.15,1.26,3.15,3.63v4l0,1.56h-1.58v-5.45c0-1.62-.57-2.43-1.82-2.43a3.78,3.78,0,0,0-3.15,2V310l0,1.56h-1.58l0-1.56v-9.73l0-1.58h1.58l0,1.58Z" transform="translate(-167.06 -267.4)"/><path class="cls-1" d="M424.85,310.1a5.3,5.3,0,0,1-4,1.72,4.24,4.24,0,0,1-4.58-4.54c0-3.08,1.91-4.95,4.43-4.95,3.17,0,4.36,2.39,4.23,5H417.9A3,3,0,0,0,421,310.5a4.31,4.31,0,0,0,2.92-1.3ZM418,306.16h5.31a2.39,2.39,0,0,0-2.5-2.56A2.69,2.69,0,0,0,418,306.16Z" transform="translate(-167.06 -267.4)"/><path class="cls-1" d="M426.77,307.08a4.58,4.58,0,1,1,4.57,4.74A4.57,4.57,0,0,1,426.77,307.08Zm7.53,0c0-2.18-1.35-3.46-3-3.46s-2.95,1.28-2.95,3.46,1.33,3.44,2.95,3.44S434.3,309.26,434.3,307.08Z" transform="translate(-167.06 -267.4)"/><path class="cls-1" d="M438.27,310v-5.84l0-1.58h1.54v3h0c.79-2.36,2.18-3.29,3.48-3.29a1.86,1.86,0,0,1,.36,0v1.46a2.36,2.36,0,0,0-.36,0c-1.93,0-3.3,2.6-3.48,4.22v2l0,1.56h-1.59Z" transform="translate(-167.06 -267.4)"/><path class="cls-1" d="M453.14,310.1a5.28,5.28,0,0,1-4,1.72,4.24,4.24,0,0,1-4.57-4.54c0-3.08,1.91-4.95,4.43-4.95,3.17,0,4.36,2.39,4.23,5h-7.08a3,3,0,0,0,3.12,3.15,4.3,4.3,0,0,0,2.91-1.3Zm-6.86-3.94h5.31a2.38,2.38,0,0,0-2.5-2.56A2.7,2.7,0,0,0,446.28,306.16Z" transform="translate(-167.06 -267.4)"/><path class="cls-1" d="M460.2,303.82h-2.47v5.55c0,.79.2,1.17,1,1.17a4.32,4.32,0,0,0,1.49-.31v1.28a4.92,4.92,0,0,1-1.75.31c-1.29,0-2.34-.42-2.34-2.33v-5.67h-1.69v-1.24h1.73l.21-2.56h1.3v2.56h2.47Z" transform="translate(-167.06 -267.4)"/><path class="cls-1" d="M462.45,311.56v-9H464l0,1.58V310l0,1.56Zm0-10.87v-2H464v2Z" transform="translate(-167.06 -267.4)"/><path class="cls-1" d="M474.62,309.46a4.36,4.36,0,0,1-8.23-2.31c0-2.77,1.71-4.82,4.41-4.82a3.93,3.93,0,0,1,3.71,2.26l-1.35.64a2.7,2.7,0,0,0-2.43-1.61c-1.51,0-2.72,1.23-2.72,3.41s1.21,3.47,2.77,3.47a3,3,0,0,0,2.6-1.66Z" transform="translate(-167.06 -267.4)"/><path class="cls-1" d="M476.4,304.05a4.33,4.33,0,0,1,3.74-1.72c2.07,0,3.76.92,3.76,3.33v3.71a13.73,13.73,0,0,0,.17,2.19h-1.5a14.71,14.71,0,0,1-.16-1.71h0a4.05,4.05,0,0,1-3.45,1.95c-1.34,0-2.87-.63-2.87-2.47,0-3.24,4.4-3.38,6.36-3.4v-.29c0-1.44-.85-2.09-2.36-2.09a3.24,3.24,0,0,0-2.68,1.28Zm6,3c-2.2,0-4.74.48-4.74,2.25,0,.79.51,1.31,1.52,1.31A3.27,3.27,0,0,0,482.41,307Z" transform="translate(-167.06 -267.4)"/><path class="cls-1" d="M488.35,310l0,1.56h-1.59l0-1.56v-9.73l0-1.58h1.59l0,1.58Z" transform="translate(-167.06 -267.4)"/><path class="cls-1" d="M504.42,301.68a5.82,5.82,0,0,0-4.16-1.93c-1.63,0-3.25.78-3.25,2.31s1.63,1.78,3.65,2.08c2.25.35,5.2.82,5.2,3.79,0,2.25-1.71,4-5.11,4a7.86,7.86,0,0,1-5.89-2.38l1.07-1a6.79,6.79,0,0,0,4.73,2c1.87,0,3.57-.74,3.57-2.41s-2-2-3.77-2.32c-2.39-.36-5.09-.9-5.09-3.61,0-2.12,1.69-3.81,4.77-3.81a7.16,7.16,0,0,1,5.36,2.25Z" transform="translate(-167.06 -267.4)"/><path class="cls-1" d="M515.89,309.46a4.36,4.36,0,0,1-8.23-2.31c0-2.77,1.71-4.82,4.41-4.82a3.93,3.93,0,0,1,3.71,2.26l-1.35.64a2.68,2.68,0,0,0-2.43-1.61c-1.51,0-2.72,1.23-2.72,3.41s1.21,3.47,2.78,3.47a3,3,0,0,0,2.59-1.66Z" transform="translate(-167.06 -267.4)"/><path class="cls-1" d="M518,311.56v-9h1.58l0,1.58V310l0,1.56Zm0-10.87v-2h1.55v2Z" transform="translate(-167.06 -267.4)"/><path class="cls-1" d="M530.47,310.1a5.3,5.3,0,0,1-4,1.72,4.23,4.23,0,0,1-4.57-4.54c0-3.08,1.9-4.95,4.43-4.95,3.16,0,4.35,2.39,4.23,5h-7.08a3,3,0,0,0,3.11,3.15,4.31,4.31,0,0,0,2.92-1.3Zm-6.86-3.94h5.31a2.39,2.39,0,0,0-2.5-2.56A2.7,2.7,0,0,0,523.61,306.16Z" transform="translate(-167.06 -267.4)"/><path class="cls-1" d="M539.49,311.56v-5.45c0-1.62-.57-2.43-1.81-2.43a3.75,3.75,0,0,0-3.15,2v5.85H533l0-1.56v-5.84l0-1.58h1.53v1.55h0a4.05,4.05,0,0,1,3.36-1.8c2,0,3.15,1.26,3.15,3.63v4l0,1.56Z" transform="translate(-167.06 -267.4)"/><path class="cls-1" d="M551.57,309.46a4.36,4.36,0,0,1-8.23-2.31c0-2.77,1.71-4.82,4.41-4.82a3.93,3.93,0,0,1,3.71,2.26l-1.35.64a2.7,2.7,0,0,0-2.43-1.61c-1.52,0-2.72,1.23-2.72,3.41s1.2,3.47,2.77,3.47a3,3,0,0,0,2.59-1.66Z" transform="translate(-167.06 -267.4)"/><path class="cls-1" d="M561.65,310.1a5.33,5.33,0,0,1-4,1.72,4.24,4.24,0,0,1-4.57-4.54c0-3.08,1.91-4.95,4.43-4.95,3.17,0,4.36,2.39,4.23,5H554.7a3,3,0,0,0,3.11,3.15,4.33,4.33,0,0,0,2.92-1.3Zm-6.86-3.94h5.31a2.39,2.39,0,0,0-2.51-2.56A2.68,2.68,0,0,0,554.79,306.16Z" transform="translate(-167.06 -267.4)"/><rect class="cls-2" x="1.28" y="10.38" width="33.47" height="25.5" rx="1.93"/><path class="cls-2" d="M201.53,278.45l-15.81,15.81a1.06,1.06,0,0,1-1.51,0l-15.74-15.73" transform="translate(-167.06 -267.4)"/><line class="cls-3" x1="14.35" y1="23.32" x2="1.01" y2="35.88"/><line class="cls-3" x1="34.75" y1="35.88" x2="22.2" y2="23.32"/></svg>