<svg id="Layer_1" data-name="Layer 1" xmlns="http://www.w3.org/2000/svg" viewBox="0 0 183.66 105.96"><defs><style>.cls-1{fill:#fff;}.cls-2,.cls-3{fill:#e77500;}.cls-2{stroke:#231f20;stroke-miterlimit:10;stroke-width:4px;}</style></defs><path class="cls-1" d="M446.09,293.66l-1,.08a30.63,30.63,0,0,0-.28-3.47h1C446,291.38,446.05,292.51,446.09,293.66Z" transform="translate(-263.36 -229.75)"/><path class="cls-1" d="M446.36,290.27c0,.86,0,1.72-.11,2.58-.08-.87-.2-1.73-.35-2.58Z" transform="translate(-263.36 -229.75)"/><path class="cls-1" d="M446.09,293.66l-1,.08a30.63,30.63,0,0,0-.28-3.47h1C446,291.38,446.05,292.51,446.09,293.66Z" transform="translate(-263.36 -229.75)"/><path class="cls-1" d="M446.36,290.27c0,.86,0,1.72-.11,2.58-.08-.87-.2-1.73-.35-2.58Z" transform="translate(-263.36 -229.75)"/><rect class="cls-1" x="4.87" y="30.35" width="178.79" height="75.6" rx="37.8"/><circle class="cls-1" cx="92.5" cy="44.4" r="40.68"/><path class="cls-2" d="M397.11,297.44" transform="translate(-263.36 -229.75)"/><path class="cls-3" d="M403,318.83a6.87,6.87,0,0,1-1.56,4.38,6.95,6.95,0,0,1-9.95.87,6.42,6.42,0,0,1-.69-.69,7,7,0,1,1,12.2-4.56Z" transform="translate(-263.36 -229.75)"/><path class="cls-3" d="M413.26,307.74l-4.59,4.59a14.24,14.24,0,0,0-25.34,0l-4.58-4.58a20.49,20.49,0,0,1,34.51,0Z" transform="translate(-263.36 -229.75)"/><path class="cls-3" d="M422.59,298.4l-4.48,4.49a27.23,27.23,0,0,0-44.22,0l-4.48-4.49a33.5,33.5,0,0,1,53.18,0Z" transform="translate(-263.36 -229.75)"/><path class="cls-3" d="M431.71,289.29l-4.46,4.45a40.23,40.23,0,0,0-62.5,0l-4.46-4.45a46.5,46.5,0,0,1,71.42,0Z" transform="translate(-263.36 -229.75)"/><path d="M446.25,292.85a32.3,32.3,0,0,0-8.1-19.09l0-.05a31.69,31.69,0,0,0-8.84-7.18,29.67,29.67,0,0,0-3.53-1.64l-1.78-.74c-.6-.22-1.2-.46-1.79-.7a11.6,11.6,0,0,0-1.84-.59l-1.87-.48-1.91-.29a12.3,12.3,0,0,0-1.91-.23,30.7,30.7,0,0,0-15.08,2.53l-2.87,1.26-1.1-2.81,0-.1a42.83,42.83,0,0,0-15.11-19.22A42.68,42.68,0,0,0,333.66,242a42.89,42.89,0,0,0-16.36,18.17l-1.05,2.22-2.39-.59-1-.24a35.44,35.44,0,0,0-6.51-.8,40.63,40.63,0,0,0-7.55.6,35,35,0,0,0-13.93,5.73,36.58,36.58,0,0,0-10.32,11,35.87,35.87,0,0,0-4.93,14.22,36.52,36.52,0,0,0,1.32,15c.45,1.18.85,2.38,1.33,3.55s1.08,2.29,1.76,3.35a63.91,63.91,0,0,0,4.1,6.42,38.2,38.2,0,0,0,11.73,10.15,39.58,39.58,0,0,0,15.37,4.76,37.81,37.81,0,0,1-16.55-2.15,40.22,40.22,0,0,1-14.54-9.23,30.16,30.16,0,0,1-5.46-6.93,21.62,21.62,0,0,1-1-2l-.94-2c-.56-1.36-1-2.77-1.55-4.15a42.41,42.41,0,0,1-1.55-17.52,42.05,42.05,0,0,1,17.8-29.42,41.09,41.09,0,0,1,16.27-6.71,46.4,46.4,0,0,1,8.81-.68,42,42,0,0,1,6.42.7,48.61,48.61,0,0,1,37.23-25.38,46.45,46.45,0,0,1,7.27-.3,48.53,48.53,0,0,1,42.47,28,36.74,36.74,0,0,1,15.17-1.91,16.07,16.07,0,0,1,2.29.27l2.27.35,2.24.57,1.12.28c.37.1.72.25,1.09.36l2.18.76a17.27,17.27,0,0,1,2.06,1,35.32,35.32,0,0,1,3.85,2.51,18.85,18.85,0,0,1,1.77,1.44c.57.51,1.18,1,1.7,1.51a36.79,36.79,0,0,1,3,3.35,35.67,35.67,0,0,1,4.69,7.58A35,35,0,0,1,446.25,292.85Z" transform="translate(-263.36 -229.75)"/></svg>