<svg id="Layer_1" data-name="Layer 1" xmlns="http://www.w3.org/2000/svg" viewBox="0 0 662.42 155.62"><defs><style>.cls-1,.cls-2{fill:#e77500;}.cls-1{stroke:#231f20;stroke-miterlimit:10;stroke-width:4px;}</style></defs><path d="M232.28,221.45a27.52,27.52,0,0,0,1.65,9.82,21.41,21.41,0,0,0,4.55,7.37,19.64,19.64,0,0,0,6.83,4.61,22.62,22.62,0,0,0,8.55,1.59,13.68,13.68,0,0,0,5.31-1.06,20.39,20.39,0,0,0,4.75-2.78,24.68,24.68,0,0,0,3.92-3.86,24.06,24.06,0,0,0,2.83-4.35l3.7,2.36a32.78,32.78,0,0,1-3.82,5.06,25.38,25.38,0,0,1-11.63,7.27,28.22,28.22,0,0,1-8.14,1.1A31,31,0,0,1,239,246.42a28,28,0,0,1-9.08-5.87,26.12,26.12,0,0,1-5.85-8.64,27.62,27.62,0,0,1-1.12-17.61,26.33,26.33,0,0,1,2.74-6.53,26.94,26.94,0,0,1,4.37-5.6,27.51,27.51,0,0,1,5.83-4.37A29.41,29.41,0,0,1,243,195a32.5,32.5,0,0,1,8.23-1,25.54,25.54,0,0,1,7.7,1.12,27,27,0,0,1,6.42,3,26.71,26.71,0,0,1,5.15,4.27,31.27,31.27,0,0,1,3.88,5.06l-3.82,2.52q-3.27-6.34-7.32-9.27a15.51,15.51,0,0,0-9.33-2.94,21.51,21.51,0,0,0-8.47,1.66,20.18,20.18,0,0,0-6.87,4.72,21.87,21.87,0,0,0-4.61,7.47A27.48,27.48,0,0,0,232.28,221.45Z" transform="translate(-31.67 -184.33)"/><path d="M299.56,248.23a19.32,19.32,0,0,1-7.7-1.54,20,20,0,0,1-6.28-4.17,19.51,19.51,0,0,1-4.23-6.2,18.75,18.75,0,0,1-1.56-7.59,27.18,27.18,0,0,1,1.42-8.95,21,21,0,0,1,4-7.11,18.41,18.41,0,0,1,6.24-4.69,19,19,0,0,1,8.13-1.69,18.31,18.31,0,0,1,7.25,1.4,18.09,18.09,0,0,1,5.69,3.74,16.92,16.92,0,0,1,3.7,5.41,16.11,16.11,0,0,1,1.32,6.42H287.51a26.14,26.14,0,0,0,1,7.52,19.14,19.14,0,0,0,2.94,6,13.91,13.91,0,0,0,4.49,3.94,11.76,11.76,0,0,0,5.71,1.41,15,15,0,0,0,5-.84,17.85,17.85,0,0,0,4.35-2.23,15.64,15.64,0,0,0,3.33-3.15,11,11,0,0,0,1.93-3.66l2.32,1a18.56,18.56,0,0,1-2.8,5.83,22.82,22.82,0,0,1-4.5,4.75,21.94,21.94,0,0,1-5.62,3.21A17,17,0,0,1,299.56,248.23Zm8-28.2a11.05,11.05,0,0,0-.81-4.25,10.39,10.39,0,0,0-5.53-5.67,10.06,10.06,0,0,0-4.06-.83,7.82,7.82,0,0,0-3.47.81,9.91,9.91,0,0,0-2.95,2.24,12.37,12.37,0,0,0-2.15,3.41,12.9,12.9,0,0,0-1,4.25Z" transform="translate(-31.67 -184.33)"/><path d="M334,247.36h-8v-58.6l5.71-2.28H334Z" transform="translate(-31.67 -184.33)"/><path d="M361.2,248.23a19.32,19.32,0,0,1-7.7-1.54,19.92,19.92,0,0,1-6.28-4.17,19.7,19.7,0,0,1-4.24-6.2,18.91,18.91,0,0,1-1.55-7.59,27.18,27.18,0,0,1,1.42-8.95,21.11,21.11,0,0,1,4-7.11,18.54,18.54,0,0,1,6.25-4.69,19,19,0,0,1,8.13-1.69,18.26,18.26,0,0,1,7.24,1.4,17.87,17.87,0,0,1,5.69,3.74,16.79,16.79,0,0,1,3.71,5.41,16.11,16.11,0,0,1,1.32,6.42H349.15a26.14,26.14,0,0,0,1,7.52,19.14,19.14,0,0,0,2.94,6,14,14,0,0,0,4.48,3.94,11.81,11.81,0,0,0,5.71,1.41,15.1,15.1,0,0,0,5-.84,17.85,17.85,0,0,0,4.35-2.23A15.64,15.64,0,0,0,376,235.9a11.17,11.17,0,0,0,1.93-3.66l2.32,1a18.56,18.56,0,0,1-2.8,5.83,22.61,22.61,0,0,1-4.51,4.75,22,22,0,0,1-5.61,3.21A17,17,0,0,1,361.2,248.23Zm7.95-28.2a11.24,11.24,0,0,0-.8-4.25,10.36,10.36,0,0,0-5.54-5.67,10,10,0,0,0-4.05-.83,7.79,7.79,0,0,0-3.47.81,9.78,9.78,0,0,0-3,2.24,12.37,12.37,0,0,0-2.15,3.41,12.9,12.9,0,0,0-1,4.25Z" transform="translate(-31.67 -184.33)"/><path d="M399.78,245.43a8.81,8.81,0,0,0,3-.49,7.92,7.92,0,0,0,2.38-1.32,6,6,0,0,0,1.56-1.91,4.92,4.92,0,0,0,.55-2.22,5.63,5.63,0,0,0-.93-3.23,9.65,9.65,0,0,0-2.44-2.46,21.28,21.28,0,0,0-3.44-2l-3.94-1.87c-1.34-.65-2.66-1.33-3.94-2.05a16.72,16.72,0,0,1-3.45-2.54,11.82,11.82,0,0,1-2.44-3.37,10.08,10.08,0,0,1-.92-4.47,10,10,0,0,1,1-4.47,10.64,10.64,0,0,1,2.85-3.56,13.91,13.91,0,0,1,4.36-2.35,17.3,17.3,0,0,1,5.51-.84,24.36,24.36,0,0,1,3.74.27,12.72,12.72,0,0,1,3.41,1.07,14,14,0,0,1,3.32,2.26,29.7,29.7,0,0,1,3.51,3.84l-3,2.64a17.28,17.28,0,0,0-5.1-5.57,10.84,10.84,0,0,0-6-1.83,11.08,11.08,0,0,0-3.15.41,8.1,8.1,0,0,0-2.42,1.14,5.68,5.68,0,0,0-1.58,1.71,4.13,4.13,0,0,0-.57,2.09,5.09,5.09,0,0,0,1,3.15,10.21,10.21,0,0,0,2.65,2.42,24.1,24.1,0,0,0,3.76,2l4.3,1.85c1.46.63,2.89,1.32,4.29,2.05a19.65,19.65,0,0,1,3.76,2.54,11.67,11.67,0,0,1,2.66,3.33,9.26,9.26,0,0,1,1,4.41,12.06,12.06,0,0,1-.94,4.78,10.26,10.26,0,0,1-2.86,3.86,14,14,0,0,1-4.78,2.58,21.78,21.78,0,0,1-6.77.95,24.19,24.19,0,0,1-3.65-.28,15,15,0,0,1-3.76-1.08,17.23,17.23,0,0,1-3.78-2.27,20.74,20.74,0,0,1-3.7-3.81l3.27-3a34.29,34.29,0,0,0,2.79,3.49,15.75,15.75,0,0,0,2.74,2.36,10.14,10.14,0,0,0,2.88,1.34A12.05,12.05,0,0,0,399.78,245.43Z" transform="translate(-31.67 -184.33)"/><path d="M431,193.33h2.28V207h9v3.42h-9v28.4a4.18,4.18,0,0,0,.34,1.69,4.57,4.57,0,0,0,.9,1.38,4.14,4.14,0,0,0,1.36.92,4.27,4.27,0,0,0,1.73.34,4.7,4.7,0,0,0,2.45-.67,8,8,0,0,0,1.93-1.66l2,1.34a12.43,12.43,0,0,1-4.29,4.41,12.29,12.29,0,0,1-6.54,1.62,8.31,8.31,0,0,1-3.5-.69,6.44,6.44,0,0,1-2.46-1.93,8.38,8.38,0,0,1-1.44-3,14.54,14.54,0,0,1-.47-3.8v-28.4h-7V209l7-1.93V195.58Z" transform="translate(-31.67 -184.33)"/><path d="M450.54,191.6a4.38,4.38,0,0,1,.36-1.77,4.55,4.55,0,0,1,2.44-2.44,4.57,4.57,0,0,1,5,1,4.72,4.72,0,0,1,1,1.46,4.65,4.65,0,0,1,0,3.54,4.72,4.72,0,0,1-1,1.46,4.55,4.55,0,0,1-5,1,4.55,4.55,0,0,1-2.44-2.44A4.38,4.38,0,0,1,450.54,191.6Zm.63,17,5.64-2.28h2.32v41.07h-8Z" transform="translate(-31.67 -184.33)"/><path d="M494.87,247.36a7.39,7.39,0,0,1-2.66-2.22,5.35,5.35,0,0,1-1.08-3.29c-.95.71-1.87,1.44-2.78,2.2a20.2,20.2,0,0,1-3,2.07,16.71,16.71,0,0,1-3.54,1.52,15.75,15.75,0,0,1-4.51.59,11.45,11.45,0,0,1-4.28-.77,9.29,9.29,0,0,1-3.23-2.11,9.19,9.19,0,0,1-2-3.19,10.65,10.65,0,0,1-.73-4,10.52,10.52,0,0,1,1-4.69,12.3,12.3,0,0,1,2.82-3.72,21.16,21.16,0,0,1,4.15-2.92,41.43,41.43,0,0,1,5-2.28q2.68-1,5.52-1.79c1.89-.53,3.72-1,5.51-1.46v-2.52a23.47,23.47,0,0,0-.39-4.65,8.08,8.08,0,0,0-1.23-3,4.57,4.57,0,0,0-2.1-1.65,8.48,8.48,0,0,0-3.05-.49,7.12,7.12,0,0,0-3.11.67,8.41,8.41,0,0,0-2.51,1.79,9.4,9.4,0,0,0-1.77,2.64,11.29,11.29,0,0,0-.92,3.21h-7.33a9.84,9.84,0,0,1,1.79-4.65,13,13,0,0,1,3.73-3.45,18.39,18.39,0,0,1,5.09-2.14,23.28,23.28,0,0,1,5.93-.75,24.06,24.06,0,0,1,6.62.77,11.35,11.35,0,0,1,4.29,2.14,7.61,7.61,0,0,1,2.3,3.37,13.34,13.34,0,0,1,.69,4.39v24.89a5.29,5.29,0,0,0,1.09,3.29,7.36,7.36,0,0,0,2.65,2.22Zm-3.74-23.47c-1.16.37-2.35.79-3.58,1.26a39.17,39.17,0,0,0-3.63,1.6,35.61,35.61,0,0,0-3.38,1.91,17.08,17.08,0,0,0-2.84,2.2,10.62,10.62,0,0,0-1.93,2.48,5.63,5.63,0,0,0-.71,2.72,7.38,7.38,0,0,0,.55,2.82,8.23,8.23,0,0,0,1.46,2.32,6.65,6.65,0,0,0,2.09,1.57,5.57,5.57,0,0,0,2.44.58,9,9,0,0,0,2.56-.36,13,13,0,0,0,2.36-1c.76-.41,1.52-.88,2.29-1.4s1.53-1.09,2.32-1.7Z" transform="translate(-31.67 -184.33)"/><path d="M516.16,247.36h-8v-58.6l5.71-2.28h2.32Z" transform="translate(-31.67 -184.33)"/><path d="M69.66,274H84.58a26.07,26.07,0,0,1,6.92.89,17.48,17.48,0,0,1,5.63,2.61,12.53,12.53,0,0,1,3.76,4.22,11.8,11.8,0,0,1,1.37,5.74,11.17,11.17,0,0,1-1.33,5.57A11.9,11.9,0,0,1,97.41,297a15.26,15.26,0,0,1-5,2.33,21.14,21.14,0,0,1-5.65.76c-.83,0-1.69,0-2.59-.05s-1.76-.09-2.59-.16-1.6-.15-2.31-.25-1.29-.19-1.74-.28v21.76H69.66Zm7.92,22.66a23.24,23.24,0,0,0,2.88.76,16.1,16.1,0,0,0,3.12.3,12,12,0,0,0,4.48-.76,9,9,0,0,0,3.19-2.1,8.46,8.46,0,0,0,1.9-3.12,11.46,11.46,0,0,0,.62-3.82,11,11,0,0,0-.81-4.3,9.76,9.76,0,0,0-2.26-3.28,10,10,0,0,0-3.37-2.11,11.35,11.35,0,0,0-4.14-.75H77.58Z" transform="translate(-31.67 -184.33)"/><path d="M113.74,297.76a24.91,24.91,0,0,0,1.49,8.86,19.44,19.44,0,0,0,4.11,6.64,17.46,17.46,0,0,0,6.16,4.15,20.25,20.25,0,0,0,7.7,1.44,12.39,12.39,0,0,0,4.8-1,18.31,18.31,0,0,0,4.27-2.5,21.59,21.59,0,0,0,3.54-3.48,21.81,21.81,0,0,0,2.55-3.92l3.34,2.13a31,31,0,0,1-3.44,4.56,22.95,22.95,0,0,1-10.5,6.55,25.33,25.33,0,0,1-7.33,1,27.88,27.88,0,0,1-10.63-2,25,25,0,0,1-8.19-5.29,23.39,23.39,0,0,1-5.27-7.79,24.64,24.64,0,0,1,1.45-21.77,24.79,24.79,0,0,1,9.2-9,26.5,26.5,0,0,1,6.41-2.56,29.52,29.52,0,0,1,7.42-.9,22.56,22.56,0,0,1,6.94,1,24.13,24.13,0,0,1,10.44,6.53,28.86,28.86,0,0,1,3.5,4.56l-3.44,2.28a23.24,23.24,0,0,0-6.61-8.37,14,14,0,0,0-8.41-2.64,19.6,19.6,0,0,0-7.64,1.49,18.15,18.15,0,0,0-6.19,4.26,19.84,19.84,0,0,0-4.16,6.73A25.07,25.07,0,0,0,113.74,297.76Z" transform="translate(-31.67 -184.33)"/><path d="M194.22,274v3h-17v44h-7.92v-44h-17v-3Z" transform="translate(-31.67 -184.33)"/><path d="M212,319.24a12.71,12.71,0,0,0,3.45-.48,10,10,0,0,0,3-1.42,7.43,7.43,0,0,0,2.17-2.3,6.16,6.16,0,0,0,.81-3.18,6.8,6.8,0,0,0-1.12-3.86,13,13,0,0,0-2.92-3.08,29.2,29.2,0,0,0-4.14-2.65q-2.33-1.25-4.74-2.49t-4.74-2.61a23.33,23.33,0,0,1-4.14-3.05,14.59,14.59,0,0,1-2.93-3.76,10,10,0,0,1-1.12-4.78,12.26,12.26,0,0,1,1-5,11.11,11.11,0,0,1,3-4,14.27,14.27,0,0,1,4.81-2.65,20.58,20.58,0,0,1,6.55-.95,22.63,22.63,0,0,1,6,.71,14.64,14.64,0,0,1,4.61,2.09,13.2,13.2,0,0,1,3.38,3.41,17.71,17.71,0,0,1,2.23,4.69l-4,1.84a19.37,19.37,0,0,0-1.81-4,12.63,12.63,0,0,0-2.63-3.07,11.17,11.17,0,0,0-3.53-2,13.9,13.9,0,0,0-4.53-.69,11.3,11.3,0,0,0-3.91.62,8.82,8.82,0,0,0-2.79,1.63,6.68,6.68,0,0,0-1.66,2.28,6.34,6.34,0,0,0-.56,2.57,5.58,5.58,0,0,0,1.14,3.39,13.58,13.58,0,0,0,3,2.91,34.65,34.65,0,0,0,4.28,2.65c1.6.85,3.22,1.72,4.88,2.59s3.29,1.79,4.88,2.74a26.57,26.57,0,0,1,4.28,3.1,14.71,14.71,0,0,1,3,3.7,8.9,8.9,0,0,1,1.14,4.49,13.14,13.14,0,0,1-1.07,5.27,11.72,11.72,0,0,1-3.19,4.3,15.82,15.82,0,0,1-5.3,2.89,23,23,0,0,1-7.35,1.07,22.46,22.46,0,0,1-6.07-.75,15.49,15.49,0,0,1-4.7-2.17,14.2,14.2,0,0,1-3.5-3.46,18.81,18.81,0,0,1-2.38-4.67l4.23-1.74a15.31,15.31,0,0,0,2,4.12,13.4,13.4,0,0,0,2.93,3.07,12.75,12.75,0,0,0,3.71,1.94A13.76,13.76,0,0,0,212,319.24Z" transform="translate(-31.67 -184.33)"/><path class="cls-1" d="M253.64,309" transform="translate(-31.67 -184.33)"/><path class="cls-2" d="M256.37,319a3.26,3.26,0,0,1-.72,2.05,3.11,3.11,0,0,1-.48.48,3.26,3.26,0,0,1-4.17-.07,2.42,2.42,0,0,1-.32-.32,3.25,3.25,0,1,1,5.69-2.14Z" transform="translate(-31.67 -184.33)"/><path class="cls-2" d="M261.19,313.77,259,315.92a6.65,6.65,0,0,0-11.84,0l-2.14-2.14a9.59,9.59,0,0,1,16.13,0Z" transform="translate(-31.67 -184.33)"/><path class="cls-2" d="M265.55,309.41l-2.09,2.09a12.73,12.73,0,0,0-20.67,0l-2.09-2.1a15.66,15.66,0,0,1,24.85,0Z" transform="translate(-31.67 -184.33)"/><path class="cls-2" d="M269.81,305.15l-2.08,2.08a18.8,18.8,0,0,0-29.21,0l-2.08-2.08a21.72,21.72,0,0,1,33.37,0Z" transform="translate(-31.67 -184.33)"/><path d="M70.59,297.19a36.13,36.13,0,0,1-28.87-10.37,27.33,27.33,0,0,1-5.1-6.42c-.67-1.2-1.17-2.49-1.78-3.72s-1-2.57-1.44-3.86A39.33,39.33,0,0,1,32,256.54a38.83,38.83,0,0,1,5.35-15.44A39.6,39.6,0,0,1,48.5,229.2,38.09,38.09,0,0,1,63.62,223a43.23,43.23,0,0,1,8.19-.64A38.73,38.73,0,0,1,80,223.45l-3.44,1.63a45.2,45.2,0,0,1,42.34-25.83,45.12,45.12,0,0,1,40.54,28.58l-4-1.65a34.19,34.19,0,0,1,16.72-2.81,15.28,15.28,0,0,1,2.13.25l2.12.33,2.08.53,1,.26c.34.09.67.23,1,.33.68.23,1.35.46,2,.71a14.28,14.28,0,0,1,1.91,1A31.4,31.4,0,0,1,188,229.1a18.94,18.94,0,0,1,1.64,1.35c.52.47,1.09.89,1.57,1.41A34.47,34.47,0,0,1,198.34,242a32.39,32.39,0,0,1,2.54,15.71,32.84,32.84,0,0,0-5.07-14.34,30.89,30.89,0,0,0-10.73-9.8,25.59,25.59,0,0,0-3.25-1.48c-.56-.21-1.09-.46-1.63-.68s-1.1-.42-1.65-.64a10,10,0,0,0-1.68-.54l-1.71-.45-1.75-.26a11.73,11.73,0,0,0-1.76-.21,28.11,28.11,0,0,0-13.82,2.32L155,232.93,153.82,230a39.38,39.38,0,0,0-13.88-17.66A39.26,39.26,0,0,0,97,211a39.52,39.52,0,0,0-15,16.7l-1,2.22-2.39-.6a32.39,32.39,0,0,0-6.88-.94,37.38,37.38,0,0,0-6.93.54,32.28,32.28,0,0,0-12.78,5.27A33.06,33.06,0,0,0,39.13,271c.41,1.09.78,2.19,1.22,3.26A34.69,34.69,0,0,0,42,277.38a65.73,65.73,0,0,0,3.73,5.91,35.2,35.2,0,0,0,10.74,9.41A36.5,36.5,0,0,0,70.59,297.19Z" transform="translate(-31.67 -184.33)"/><path d="M302.68,296.31v25.05H293.9V269.14h8.78v23.78H328.9V269.14h8.79v52.22H328.9V296.31Z" transform="translate(-31.67 -184.33)"/><path d="M366.38,322.22a22.07,22.07,0,0,1-8.55-1.61,21,21,0,0,1-6.73-4.39,20.12,20.12,0,0,1-6-14.47,21.85,21.85,0,0,1,1.6-8.37,21,21,0,0,1,4.43-6.83,20.42,20.42,0,0,1,6.73-4.59,21.38,21.38,0,0,1,8.55-1.68,22.88,22.88,0,0,1,8.48,1.54,20.82,20.82,0,0,1,6.72,4.21,19.31,19.31,0,0,1,4.43,6.28,19,19,0,0,1,1.59,7.74,23.27,23.27,0,0,1-1.59,8.61,21.9,21.9,0,0,1-4.43,7,21.1,21.1,0,0,1-6.72,4.76A20.3,20.3,0,0,1,366.38,322.22Zm1.53-3a8.13,8.13,0,0,0,4.34-1.22,11.25,11.25,0,0,0,3.38-3.29,16.55,16.55,0,0,0,2.21-4.78,20.75,20.75,0,0,0,.79-5.75,42.4,42.4,0,0,0-.75-8.19,20.84,20.84,0,0,0-2.44-6.66,12.07,12.07,0,0,0-11-6.1,7.3,7.3,0,0,0-3.9,1.16,11.48,11.48,0,0,0-3.33,3.17,17,17,0,0,0-2.3,4.7A18.57,18.57,0,0,0,354,298a35.21,35.21,0,0,0,.93,8.27,22.29,22.29,0,0,0,2.72,6.74A14.44,14.44,0,0,0,362,317.6,10.61,10.61,0,0,0,367.91,319.27Z" transform="translate(-31.67 -184.33)"/><path d="M403,321.36h-8v-58.6l5.71-2.28H403Z" transform="translate(-31.67 -184.33)"/><path d="M431.72,322.22a22.07,22.07,0,0,1-8.55-1.61,21,21,0,0,1-6.73-4.39,20.12,20.12,0,0,1-6-14.47,22,22,0,0,1,1.6-8.37,21,21,0,0,1,4.43-6.83,20.42,20.42,0,0,1,6.73-4.59,21.38,21.38,0,0,1,8.55-1.68,23,23,0,0,1,8.49,1.54,20.88,20.88,0,0,1,6.71,4.21,19.31,19.31,0,0,1,4.43,6.28,19,19,0,0,1,1.59,7.74,23.27,23.27,0,0,1-1.59,8.61,21.9,21.9,0,0,1-4.43,7,21.16,21.16,0,0,1-6.71,4.76A20.38,20.38,0,0,1,431.72,322.22Zm1.53-3a8.13,8.13,0,0,0,4.34-1.22,11.25,11.25,0,0,0,3.38-3.29,16.55,16.55,0,0,0,2.21-4.78,20.75,20.75,0,0,0,.78-5.75,43.22,43.22,0,0,0-.74-8.19,20.84,20.84,0,0,0-2.44-6.66,12,12,0,0,0-11-6.1,7.3,7.3,0,0,0-3.9,1.16,11.48,11.48,0,0,0-3.33,3.17,17,17,0,0,0-2.3,4.7,18.57,18.57,0,0,0-.87,5.73,35.21,35.21,0,0,0,.93,8.27,22.29,22.29,0,0,0,2.72,6.74,14.44,14.44,0,0,0,4.37,4.55A10.61,10.61,0,0,0,433.25,319.27Z" transform="translate(-31.67 -184.33)"/><path d="M498.29,283.16v3.39h-7.64a14.64,14.64,0,0,1,1.88,3.68,12.31,12.31,0,0,1,.72,4.07,11.93,11.93,0,0,1-1.37,5.71,13.44,13.44,0,0,1-3.84,4.41,18.26,18.26,0,0,1-5.89,2.86,26.86,26.86,0,0,1-7.56,1,22.3,22.3,0,0,1-3.13-.23,17,17,0,0,1-2.78-.63,9.53,9.53,0,0,0-1.93,2.18,4.59,4.59,0,0,0-.79,2.5,2.14,2.14,0,0,0,1.32,1.93,9.11,9.11,0,0,0,3.76.83l14.89.67a25.53,25.53,0,0,1,6,.85,10.58,10.58,0,0,1,3.81,1.85,6.38,6.38,0,0,1,2,2.73,9.9,9.9,0,0,1,.59,3.55,12.6,12.6,0,0,1-1.63,6.36,14.34,14.34,0,0,1-4.71,4.86,24.09,24.09,0,0,1-7.5,3.11,41.29,41.29,0,0,1-10,1.11,55.85,55.85,0,0,1-8.74-.6,25.78,25.78,0,0,1-6.23-1.67,9.61,9.61,0,0,1-3.7-2.6,5.3,5.3,0,0,1-1.22-3.41,6.58,6.58,0,0,1,.83-3.17,14.24,14.24,0,0,1,2.13-2.91,29.79,29.79,0,0,1,2.87-2.7c1.05-.86,2.09-1.69,3.11-2.48a14.08,14.08,0,0,1-2.06-.84,7.82,7.82,0,0,1-1.68-1.13,5,5,0,0,1-1.1-1.36,3.22,3.22,0,0,1-.4-1.55,5.8,5.8,0,0,1,.65-2.54,10.65,10.65,0,0,1,1.78-2.52,15.29,15.29,0,0,1,2.6-2.21,13.26,13.26,0,0,1,3.17-1.59,15,15,0,0,1-6.36-4.83,11.55,11.55,0,0,1-2.31-7.1,12,12,0,0,1,1.36-5.6,14.63,14.63,0,0,1,3.76-4.6,18.38,18.38,0,0,1,5.61-3.11,20.39,20.39,0,0,1,6.95-1.15,26.32,26.32,0,0,1,3.57.24,28.77,28.77,0,0,1,3.27.63,16.3,16.3,0,0,1,2.67.91,6.69,6.69,0,0,1,1.83,1.1ZM466,321a8.63,8.63,0,0,0-1.57,1.5,9.93,9.93,0,0,0-1.14,1.73,8.13,8.13,0,0,0-.71,1.83,7,7,0,0,0-.24,1.76,4.15,4.15,0,0,0,.95,2.56,8.09,8.09,0,0,0,2.83,2.16,18.6,18.6,0,0,0,4.75,1.5,35.9,35.9,0,0,0,6.63.55,37.07,37.07,0,0,0,7.19-.63,23.85,23.85,0,0,0,5.39-1.67,10.62,10.62,0,0,0,3.39-2.33,3.82,3.82,0,0,0,1.16-2.58,3.93,3.93,0,0,0-.69-2.32,5,5,0,0,0-2-1.62,11.63,11.63,0,0,0-3.15-.94,24.9,24.9,0,0,0-4.17-.32q-2.91,0-5.87-.13c-2-.1-3.8-.2-5.51-.32s-3.2-.25-4.49-.39S466.51,321.12,466,321Zm10-14.84a7.39,7.39,0,0,0,3.26-.77,9,9,0,0,0,2.78-2.11,10.19,10.19,0,0,0,1.91-3.13,10.5,10.5,0,0,0,.71-3.88,18,18,0,0,0-.81-5.49,14.9,14.9,0,0,0-2.18-4.41,10.57,10.57,0,0,0-3.23-2.94,7.73,7.73,0,0,0-3.9-1.06,7.07,7.07,0,0,0-3.49.83,6.82,6.82,0,0,0-2.42,2.3,11.07,11.07,0,0,0-1.4,3.47,19.29,19.29,0,0,0-.45,4.27,18.46,18.46,0,0,0,.67,5.08,13.76,13.76,0,0,0,1.89,4.11,9.11,9.11,0,0,0,2.91,2.74A7.3,7.3,0,0,0,475.93,306.2Z" transform="translate(-31.67 -184.33)"/><path d="M507.42,280.28h1.22l1.06,8.23a14.73,14.73,0,0,1,2.36-3.3,16.83,16.83,0,0,1,3.13-2.6,15.08,15.08,0,0,1,3.63-1.72,12.74,12.74,0,0,1,7.36-.13,10.65,10.65,0,0,1,3.21,1.49L526.87,289a7.58,7.58,0,0,0-1.66-1.4,7.9,7.9,0,0,0-1.77-.83,7.78,7.78,0,0,0-1.85-.37c-.63-.05-1.26-.08-1.89-.08a10,10,0,0,0-2.93.43,10.54,10.54,0,0,0-5.14,3.45,13.87,13.87,0,0,0-1.93,3.09v28.08h-8V282.49Z" transform="translate(-31.67 -184.33)"/><path d="M557.57,321.36a7.52,7.52,0,0,1-2.66-2.23,5.33,5.33,0,0,1-1.08-3.29c-1,.71-1.87,1.45-2.78,2.21a21,21,0,0,1-2.95,2.07,17,17,0,0,1-3.55,1.51,15.36,15.36,0,0,1-4.51.59,11.39,11.39,0,0,1-4.27-.76,9.58,9.58,0,0,1-3.23-2.11,9.28,9.28,0,0,1-2-3.19,10.67,10.67,0,0,1-.73-4,10.51,10.51,0,0,1,1-4.68,12.22,12.22,0,0,1,2.82-3.73,21.13,21.13,0,0,1,4.15-2.91,41.43,41.43,0,0,1,5-2.28c1.79-.67,3.62-1.27,5.51-1.8s3.73-1,5.52-1.45v-2.52a22.66,22.66,0,0,0-.4-4.65,8,8,0,0,0-1.22-3.05,4.53,4.53,0,0,0-2.1-1.66,8.73,8.73,0,0,0-3.06-.49,7.29,7.29,0,0,0-3.11.67,8.54,8.54,0,0,0-2.5,1.79,9.4,9.4,0,0,0-1.77,2.64,11.29,11.29,0,0,0-.92,3.21h-7.33a9.92,9.92,0,0,1,1.79-4.65,13.18,13.18,0,0,1,3.72-3.44A18.6,18.6,0,0,1,542,281a23.28,23.28,0,0,1,5.93-.75,24.51,24.51,0,0,1,6.62.77,11.36,11.36,0,0,1,4.29,2.15,7.71,7.71,0,0,1,2.3,3.36,13.36,13.36,0,0,1,.69,4.4v24.88a5.33,5.33,0,0,0,1.08,3.29,7.61,7.61,0,0,0,2.66,2.23Zm-3.74-23.47c-1.16.36-2.35.78-3.59,1.26s-2.44,1-3.62,1.59-2.31,1.23-3.39,1.91a17.45,17.45,0,0,0-2.83,2.21,10,10,0,0,0-1.93,2.48,5.61,5.61,0,0,0-.71,2.72,7.18,7.18,0,0,0,.55,2.81,8.09,8.09,0,0,0,1.46,2.32,6.68,6.68,0,0,0,2.09,1.58,5.53,5.53,0,0,0,2.44.57,9.42,9.42,0,0,0,2.56-.35,12.35,12.35,0,0,0,2.36-1,23.35,23.35,0,0,0,2.28-1.4c.77-.52,1.54-1.09,2.33-1.69Z" transform="translate(-31.67 -184.33)"/><path d="M576.18,280.28h2.28v9.06q1.23-1.53,2.7-3.15a22.81,22.81,0,0,1,3.27-2.93,16.42,16.42,0,0,1,4-2.15,13.15,13.15,0,0,1,4.72-.83,14,14,0,0,1,6.5,1.5,15.39,15.39,0,0,1,5,4.06,18.32,18.32,0,0,1,3.19,6,23.57,23.57,0,0,1,1.13,7.35,29.62,29.62,0,0,1-1.38,9.23,21.85,21.85,0,0,1-3.94,7.31,17.92,17.92,0,0,1-6.22,4.78,19.12,19.12,0,0,1-8.19,1.71,25.09,25.09,0,0,1-3.1-.17,18.57,18.57,0,0,1-2.71-.54,15.29,15.29,0,0,1-2.48-.9,19.69,19.69,0,0,1-2.43-1.34v19.06h-8v-55.8Zm2.28,30.21a7.62,7.62,0,0,0,.79,3.4,8.63,8.63,0,0,0,2.21,2.8,10.55,10.55,0,0,0,3.38,1.89,13.08,13.08,0,0,0,4.34.69,8.39,8.39,0,0,0,4.23-1.14,10.89,10.89,0,0,0,3.47-3.25,17.11,17.11,0,0,0,2.32-5,23.29,23.29,0,0,0,.84-6.46,34.37,34.37,0,0,0-.78-7.78,18.23,18.23,0,0,0-2.19-5.53,9.69,9.69,0,0,0-3.31-3.31,8.27,8.27,0,0,0-4.19-1.1,10.6,10.6,0,0,0-3.33.53,13,13,0,0,0-3,1.44,15.51,15.51,0,0,0-2.62,2.09,19.19,19.19,0,0,0-2.15,2.48Z" transform="translate(-31.67 -184.33)"/><path d="M624.33,288.44a25.59,25.59,0,0,1,7.56-6.13,17.55,17.55,0,0,1,8-2,8.51,8.51,0,0,1,4,1,10.37,10.37,0,0,1,3.21,2.6,12.28,12.28,0,0,1,2.16,3.88,14,14,0,0,1,.79,4.74v28.91h-8V293.83c0-2.68-.61-4.71-1.81-6.08a5.91,5.91,0,0,0-4.65-2.07,9.17,9.17,0,0,0-2.68.43,16.88,16.88,0,0,0-2.87,1.2,25.1,25.1,0,0,0-2.92,1.83,25.74,25.74,0,0,0-2.79,2.37v29.85h-8v-58.6l5.75-2.28h2.29Z" transform="translate(-31.67 -184.33)"/><path d="M657.51,330.89a10.87,10.87,0,0,1,1,.51c.38.21.8.41,1.26.61a9,9,0,0,0,1.52.49,8.07,8.07,0,0,0,1.85.2,4.29,4.29,0,0,0,2.36-.71,8.82,8.82,0,0,0,2-1.77,14.82,14.82,0,0,0,1.61-2.33,23.77,23.77,0,0,0,1.19-2.36l2.71-6.06L652.47,281h9.09l15.52,29.14L689.8,281h4.29L673.5,328.45a24.54,24.54,0,0,1-3,5.12,18.86,18.86,0,0,1-3.56,3.58,14.32,14.32,0,0,1-3.9,2.11,12.25,12.25,0,0,1-3.9.69,8.84,8.84,0,0,1-2.75-.44,7.19,7.19,0,0,1-2.25-1.14Z" transform="translate(-31.67 -184.33)"/><path class="cls-2" d="M563.79,247.59a45.76,45.76,0,0,0-3.74-9,33,33,0,0,0-12.71-12.7,46.86,46.86,0,0,0-9-3.76,18.12,18.12,0,0,1,10.49.13,22.23,22.23,0,0,1,14.82,14.83A18.09,18.09,0,0,1,563.79,247.59Z" transform="translate(-31.67 -184.33)"/><path class="cls-2" d="M582.47,247.59a60.08,60.08,0,0,0-5.17-16.13,50,50,0,0,0-22.82-22.81,60,60,0,0,0-16.13-5.17A35.45,35.45,0,0,1,556,205,40.42,40.42,0,0,1,580.92,230,35.54,35.54,0,0,1,582.47,247.59Z" transform="translate(-31.67 -184.33)"/><path class="cls-2" d="M601.54,247.89a78.23,78.23,0,0,0-6.6-23.43,69,69,0,0,0-33.15-33.14,77.93,77.93,0,0,0-23.44-6.61,53.5,53.5,0,0,1,24.93,3A59.2,59.2,0,0,1,598.53,223,53.71,53.71,0,0,1,601.54,247.89Z" transform="translate(-31.67 -184.33)"/><polygon class="cls-2" points="510.68 51.88 512.21 58.99 519.32 60.52 512.21 62.05 510.68 69.16 509.15 62.05 502.04 60.52 509.15 58.99 510.68 51.88"/></svg>